<svg xmlns="http://www.w3.org/2000/svg" width="199" height="32" viewBox="0 0 199 32" fill="none">
    <path d="M191.674 27.3663C190.132 27.3663 188.825 27.1097 187.752 26.5965C186.702 26.0832 185.898 25.4138 185.339 24.5881C184.78 23.7402 184.467 22.8253 184.4 21.8434H187.015C187.082 22.4013 187.272 22.948 187.585 23.4836C187.92 23.9968 188.422 24.4208 189.093 24.7555C189.763 25.0679 190.635 25.2241 191.707 25.2241C192.042 25.2241 192.456 25.1906 192.947 25.1237C193.439 25.0567 193.908 24.934 194.355 24.7555C194.824 24.577 195.215 24.3092 195.528 23.9522C195.841 23.5951 195.997 23.1377 195.997 22.5798C195.997 21.8881 195.729 21.3525 195.193 20.9731C194.657 20.5938 193.964 20.3037 193.115 20.1029C192.266 19.8797 191.361 19.6677 190.4 19.4669C189.462 19.2661 188.568 19.0094 187.719 18.697C186.87 18.3623 186.177 17.9049 185.641 17.3247C185.104 16.7222 184.836 15.9077 184.836 14.8812C184.836 13.3638 185.384 12.1923 186.479 11.3666C187.596 10.5187 189.238 10.0947 191.405 10.0947C192.88 10.0947 194.076 10.329 194.992 10.7976C195.93 11.2439 196.634 11.8241 197.103 12.5382C197.595 13.2522 197.885 14.0221 197.975 14.8477H195.428C195.338 14.1337 194.981 13.52 194.355 13.0068C193.752 12.4935 192.746 12.2369 191.338 12.2369C188.679 12.2369 187.35 13.0402 187.35 14.6469C187.35 15.3164 187.618 15.8296 188.154 16.1866C188.691 16.5437 189.383 16.8338 190.232 17.0569C191.081 17.2577 191.975 17.4586 192.914 17.6594C193.875 17.8379 194.78 18.0945 195.629 18.4293C196.478 18.764 197.17 19.2438 197.707 19.8686C198.243 20.4711 198.511 21.2967 198.511 22.3455C198.511 23.9745 197.885 25.2241 196.634 26.0944C195.405 26.9423 193.752 27.3663 191.674 27.3663Z" fill="#202939"/>
    <path d="M174.499 27.3663C172.957 27.3663 171.65 27.1097 170.577 26.5965C169.527 26.0832 168.723 25.4138 168.164 24.5881C167.605 23.7402 167.293 22.8253 167.226 21.8434H169.84C169.907 22.4013 170.097 22.948 170.41 23.4836C170.745 23.9968 171.248 24.4208 171.918 24.7555C172.588 25.0679 173.46 25.2241 174.532 25.2241C174.867 25.2241 175.281 25.1906 175.772 25.1237C176.264 25.0567 176.733 24.934 177.18 24.7555C177.649 24.577 178.04 24.3092 178.353 23.9522C178.666 23.5951 178.822 23.1377 178.822 22.5798C178.822 21.8881 178.554 21.3525 178.018 20.9731C177.482 20.5938 176.789 20.3037 175.94 20.1029C175.091 19.8797 174.186 19.6677 173.225 19.4669C172.287 19.2661 171.393 19.0094 170.544 18.697C169.695 18.3623 169.002 17.9049 168.466 17.3247C167.929 16.7222 167.661 15.9077 167.661 14.8812C167.661 13.3638 168.209 12.1923 169.304 11.3666C170.421 10.5187 172.063 10.0947 174.231 10.0947C175.705 10.0947 176.901 10.329 177.817 10.7976C178.755 11.2439 179.459 11.8241 179.929 12.5382C180.42 13.2522 180.711 14.0221 180.8 14.8477H178.253C178.163 14.1337 177.806 13.52 177.18 13.0068C176.577 12.4935 175.571 12.2369 174.164 12.2369C171.505 12.2369 170.175 13.0402 170.175 14.6469C170.175 15.3164 170.443 15.8296 170.98 16.1866C171.516 16.5437 172.208 16.8338 173.058 17.0569C173.907 17.2577 174.8 17.4586 175.739 17.6594C176.7 17.8379 177.605 18.0945 178.454 18.4293C179.303 18.764 179.996 19.2438 180.532 19.8686C181.068 20.4711 181.336 21.2967 181.336 22.3455C181.336 23.9745 180.711 25.2241 179.459 26.0944C178.23 26.9423 176.577 27.3663 174.499 27.3663Z" fill="#202939"/>
    <path d="M154.532 27.3663C152.901 27.3663 151.471 26.987 150.242 26.2283C149.035 25.4473 148.097 24.3985 147.426 23.0819C146.756 21.7653 146.421 20.3149 146.421 18.7305C146.421 17.1238 146.756 15.6734 147.426 14.3791C148.097 13.0626 149.035 12.0249 150.242 11.2662C151.471 10.4852 152.901 10.0947 154.532 10.0947C155.917 10.0947 157.102 10.3625 158.085 10.898C159.09 11.4336 159.906 12.1588 160.531 13.0737V10.3625H163.045V27.0986H160.531V24.4208C159.906 25.3134 159.09 26.0274 158.085 26.563C157.102 27.0985 155.917 27.3663 154.532 27.3663ZM154.867 25.0902C156.118 25.0902 157.169 24.8001 158.018 24.2199C158.889 23.6398 159.548 22.8699 159.995 21.9104C160.442 20.9285 160.666 19.8686 160.666 18.7305C160.666 17.5701 160.442 16.5102 159.995 15.5507C159.548 14.5911 158.889 13.8213 158.018 13.2411C157.169 12.6609 156.118 12.3708 154.867 12.3708C153.638 12.3708 152.577 12.6609 151.683 13.2411C150.789 13.8213 150.108 14.5911 149.638 15.5507C149.169 16.5102 148.935 17.5701 148.935 18.7305C148.935 19.8686 149.169 20.9285 149.638 21.9104C150.108 22.8699 150.789 23.6398 151.683 24.2199C152.577 24.8001 153.638 25.0902 154.867 25.0902Z" fill="#202939"/>
    <path d="M125.944 27.0985V4.93992H135.932C138.301 4.93992 140.167 5.58705 141.53 6.88131C142.893 8.15325 143.574 9.88264 143.574 12.0695C143.574 14.2563 142.893 15.9969 141.53 17.2911C140.167 18.5631 138.301 19.1991 135.932 19.1991H128.458V27.0985H125.944ZM128.458 16.856H135.765C137.508 16.856 138.826 16.432 139.72 15.5841C140.614 14.7361 141.06 13.5646 141.06 12.0695C141.06 10.5967 140.614 9.43635 139.72 8.58839C138.826 7.74043 137.508 7.31645 135.765 7.31645H128.458V16.856Z" fill="#202939"/>
    <path d="M113.187 27.3663C111.488 27.3663 110.002 26.987 108.729 26.2283C107.455 25.4473 106.461 24.3985 105.746 23.0819C105.053 21.7653 104.707 20.3149 104.707 18.7305C104.707 17.1238 105.042 15.6734 105.712 14.3791C106.383 13.0626 107.343 12.0249 108.595 11.2662C109.846 10.4852 111.321 10.0947 113.019 10.0947C114.739 10.0947 116.214 10.4852 117.443 11.2662C118.694 12.0249 119.655 13.0626 120.326 14.3791C120.996 15.6734 121.331 17.1238 121.331 18.7305V19.7347H107.288C107.422 20.7165 107.734 21.6203 108.226 22.4459C108.74 23.2493 109.421 23.8964 110.271 24.3873C111.12 24.8559 112.103 25.0902 113.22 25.0902C114.404 25.0902 115.399 24.8336 116.203 24.3204C117.007 23.7848 117.633 23.1042 118.08 22.2786H120.828C120.247 23.7737 119.32 25.001 118.046 25.9605C116.795 26.8977 115.175 27.3663 113.187 27.3663ZM107.321 17.3916H118.717C118.493 15.9635 117.89 14.7696 116.907 13.8101C115.924 12.8506 114.628 12.3708 113.019 12.3708C111.41 12.3708 110.114 12.8506 109.131 13.8101C108.17 14.7696 107.567 15.9635 107.321 17.3916Z" fill="#202939"/>
    <path d="M93.6116 27.0986V10.3625H96.1254V14.4795C96.2148 14.1895 96.3823 13.8101 96.6281 13.3415C96.8963 12.8506 97.2761 12.3596 97.7677 11.8687C98.2593 11.3778 98.8738 10.965 99.6111 10.6302C100.371 10.2732 101.265 10.0947 102.292 10.0947H102.46V12.6051H102.158C100.907 12.6051 99.8234 12.951 98.9073 13.6427C98.0135 14.3122 97.3208 15.1936 96.8292 16.287C96.36 17.3582 96.1254 18.5074 96.1254 19.7347V27.0986H93.6116Z" fill="#202939"/>
    <path d="M80.9606 27.3663C79.2624 27.3663 77.7876 26.987 76.5363 26.2283C75.285 25.4473 74.3242 24.3985 73.6539 23.0819C72.9836 21.7653 72.6484 20.3149 72.6484 18.7305C72.6484 17.1238 72.9836 15.6734 73.6539 14.3791C74.3242 13.0626 75.285 12.0249 76.5363 11.2662C77.7876 10.4852 79.2624 10.0947 80.9606 10.0947C82.6811 10.0947 84.1558 10.4852 85.3848 11.2662C86.6361 12.0249 87.5969 13.0626 88.2672 14.3791C88.9376 15.6734 89.2728 17.1238 89.2728 18.7305C89.2728 20.3149 88.9376 21.7653 88.2672 23.0819C87.5969 24.3985 86.6361 25.4473 85.3848 26.2283C84.1558 26.987 82.6811 27.3663 80.9606 27.3663ZM80.9606 25.0902C82.2119 25.0902 83.2621 24.8001 84.1112 24.2199C84.9826 23.6398 85.6418 22.8699 86.0886 21.9104C86.5355 20.9285 86.759 19.8686 86.759 18.7305C86.759 17.5701 86.5355 16.5102 86.0886 15.5507C85.6418 14.5911 84.9826 13.8213 84.1112 13.2411C83.2621 12.6609 82.2119 12.3708 80.9606 12.3708C79.7316 12.3708 78.6814 12.6609 77.81 13.2411C76.9385 13.8213 76.2794 14.5911 75.8325 15.5507C75.3856 16.5102 75.1621 17.5701 75.1621 18.7305C75.1621 19.8686 75.3856 20.9285 75.8325 21.9104C76.2794 22.8699 76.9385 23.6398 77.81 24.2199C78.6814 24.8001 79.7316 25.0902 80.9606 25.0902Z" fill="#202939"/>
    <path d="M59.3948 27.3661C57.1826 27.3661 55.2722 26.864 53.6634 25.8598C52.0546 24.8333 50.8144 23.461 49.943 21.7427C49.0939 20.0245 48.6694 18.1166 48.6694 16.019C48.6694 13.9214 49.0939 12.0135 49.943 10.2953C50.8144 8.57703 52.0546 7.21583 53.6634 6.21167C55.2722 5.18519 57.1826 4.67195 59.3948 4.67195C61.0706 4.67195 62.5789 4.9732 63.9195 5.5757C65.2602 6.15588 66.3998 6.95921 67.3383 7.98569C68.2767 9.01217 68.9806 10.206 69.4498 11.5672H66.802C66.2434 10.206 65.3608 9.12375 64.1542 8.32041C62.9475 7.51708 61.4281 7.11542 59.5959 7.11542C57.8083 7.11542 56.2777 7.51708 55.004 8.32041C53.7527 9.10143 52.8031 10.1614 52.1551 11.5003C51.5071 12.8392 51.1831 14.3454 51.1831 16.019C51.1831 17.6703 51.5071 19.1765 52.1551 20.5378C52.8031 21.8766 53.7527 22.9477 55.004 23.7511C56.2777 24.5321 57.8083 24.9226 59.5959 24.9226C61.4281 24.9226 62.9475 24.5209 64.1542 23.7176C65.3608 22.9143 66.2434 21.832 66.802 20.4708H69.4498C68.9806 21.8097 68.2767 23.0035 67.3383 24.0523C66.3998 25.0788 65.2602 25.8933 63.9195 26.4958C62.5789 27.076 61.0706 27.3661 59.3948 27.3661Z" fill="#202939"/>
    <path d="M187.449 21.3553L187.5 21.785C187.558 22.266 187.722 22.7454 188 23.2253C188.278 23.6472 188.704 24.015 189.309 24.3172C189.891 24.5863 190.682 24.7357 191.707 24.7357L191.707 25.2241L191.508 25.2223C190.592 25.2052 189.829 25.0682 189.221 24.812L189.093 24.7555C188.422 24.4208 187.92 23.9968 187.585 23.4836C187.272 22.948 187.082 22.4013 187.015 21.8434H184.4C184.467 22.8253 184.78 23.7402 185.339 24.5881C185.898 25.4138 186.702 26.0832 187.752 26.5965C188.758 27.0776 189.969 27.3332 191.387 27.3633L191.674 27.3663C193.687 27.3663 195.301 26.9683 196.518 26.1726L196.634 26.0944C197.846 25.2513 198.471 24.0521 198.509 22.4969L198.511 22.3455C198.511 21.3623 198.275 20.5751 197.804 19.9841L197.707 19.8686C197.204 19.2828 196.564 18.8245 195.786 18.4937L195.629 18.4293C194.78 18.0945 193.875 17.8379 192.914 17.6594C191.975 17.4586 191.081 17.2577 190.232 17.0569C189.436 16.8477 188.778 16.5795 188.257 16.2526L188.154 16.1866C187.652 15.8519 187.385 15.3797 187.353 14.7704L187.35 14.6469C187.35 13.0402 188.679 12.2369 191.338 12.2369L191.598 12.2398C192.87 12.2699 193.789 12.5256 194.355 13.0068C194.942 13.4879 195.293 14.0572 195.408 14.7149L195.428 14.8477H197.975C197.891 14.0737 197.631 13.3485 197.193 12.6726L197.103 12.5382C196.663 11.8687 196.017 11.3167 195.165 10.8826L194.992 10.7976C194.133 10.3583 193.029 10.1249 191.679 10.0974L191.405 10.0947C189.238 10.0947 187.596 10.5187 186.479 11.3666L186.377 11.4448C185.35 12.2655 184.836 13.4112 184.836 14.8812L184.839 15.071C184.871 16.0085 185.138 16.7598 185.641 17.3247C186.177 17.9049 186.87 18.3623 187.719 18.697C188.568 19.0094 189.462 19.2661 190.4 19.4669C191.361 19.6677 192.266 19.8797 193.115 20.1029C193.964 20.3037 194.657 20.5938 195.193 20.9731C195.729 21.3525 195.997 21.8881 195.997 22.5798L195.996 22.6832C195.977 23.1943 195.821 23.6175 195.528 23.9522L195.468 24.0179C195.166 24.3422 194.795 24.5881 194.355 24.7555C193.908 24.934 193.439 25.0567 192.947 25.1237C192.456 25.1906 192.042 25.2241 191.707 25.2241L191.707 24.7357C192.012 24.7357 192.402 24.7053 192.881 24.64C193.334 24.5783 193.765 24.4655 194.173 24.3022L194.177 24.3005L194.181 24.2992C194.58 24.1474 194.903 23.924 195.16 23.6304C195.382 23.3776 195.509 23.0412 195.509 22.5797C195.509 22.0361 195.309 21.6534 194.91 21.3713C194.439 21.0379 193.809 20.7684 193.002 20.5776L192.996 20.5762L192.99 20.5748C192.15 20.354 191.254 20.1439 190.3 19.9446L190.298 19.9439C189.338 19.7385 188.422 19.4758 187.549 19.155L187.539 19.1509C186.632 18.7934 185.875 18.2976 185.281 17.6558L185.275 17.6489C184.64 16.9348 184.347 15.9934 184.347 14.8811C184.347 13.2295 184.952 11.9057 186.184 10.9769C187.421 10.0384 189.187 9.60642 191.406 9.60642C192.927 9.60644 194.206 9.84722 195.215 10.363C196.207 10.837 196.981 11.4657 197.506 12.2616L197.604 12.408C198.081 13.1452 198.368 13.9425 198.461 14.7952L198.519 15.3356H194.996L194.942 14.9083C194.87 14.3339 194.587 13.8284 194.045 13.3839L194.041 13.3812L194.038 13.3781C193.57 12.9797 192.711 12.725 191.338 12.725C190.042 12.725 189.152 12.9235 188.6 13.2569C188.088 13.5664 187.839 14.0069 187.839 14.6468C187.839 15.1608 188.032 15.5181 188.425 15.7803C188.904 16.0988 189.542 16.3705 190.357 16.5846C191.199 16.7836 192.085 16.9825 193.016 17.1818C194.001 17.3655 194.932 17.6297 195.808 17.9751C196.723 18.3358 197.484 18.8592 198.078 19.5506C198.711 20.2659 199 21.2172 199 22.3454C199 24.1209 198.306 25.5259 196.913 26.4947L196.912 26.4957C195.575 27.4182 193.813 27.8543 191.674 27.8543C190.08 27.8543 188.696 27.5891 187.541 27.0364L187.537 27.0347C186.424 26.4905 185.548 25.7689 184.934 24.8613L184.932 24.859L184.931 24.8562C184.327 23.9404 183.986 22.9449 183.913 21.8766L183.877 21.3553H187.449Z" fill="#202939"/>
    <path d="M170.273 21.3553L170.325 21.785C170.383 22.266 170.547 22.7454 170.825 23.2253C171.103 23.6472 171.53 24.015 172.134 24.3172C172.716 24.5863 173.507 24.7357 174.532 24.7357V25.2241L174.334 25.2223C173.417 25.2052 172.655 25.0682 172.046 24.812L171.918 24.7555C171.248 24.4208 170.745 23.9968 170.41 23.4836C170.097 22.948 169.907 22.4013 169.84 21.8434H167.226C167.293 22.8253 167.605 23.7402 168.164 24.5881C168.723 25.4138 169.527 26.0832 170.577 26.5965C171.583 27.0776 172.795 27.3332 174.212 27.3633L174.499 27.3663C176.512 27.3663 178.127 26.9683 179.343 26.1726L179.459 26.0944C180.671 25.2513 181.296 24.052 181.334 22.4969L181.336 22.3455C181.336 21.3623 181.101 20.5751 180.629 19.9841L180.532 19.8686C180.029 19.2828 179.389 18.8245 178.611 18.4937L178.454 18.4293C177.605 18.0945 176.7 17.8379 175.739 17.6594C174.8 17.4586 173.907 17.2577 173.058 17.0569C172.262 16.8477 171.603 16.5795 171.082 16.2526L170.98 16.1866C170.477 15.8519 170.21 15.3797 170.178 14.7704L170.175 14.6469C170.175 13.0402 171.505 12.2369 174.164 12.2369L174.423 12.2398C175.695 12.2699 176.615 12.5256 177.18 13.0068C177.767 13.4879 178.117 14.0572 178.233 14.7149L178.253 14.8477H180.8C180.716 14.0737 180.456 13.3486 180.018 12.6726L179.929 12.5382C179.489 11.8687 178.843 11.3167 177.99 10.8826L177.817 10.7976C176.958 10.3583 175.854 10.1249 174.504 10.0974L174.231 10.0947C172.063 10.0947 170.421 10.5187 169.304 11.3666L169.203 11.4448C168.175 12.2655 167.661 13.4112 167.661 14.8812L167.665 15.071C167.696 16.0085 167.963 16.7598 168.466 17.3247C169.002 17.9049 169.695 18.3623 170.544 18.697C171.393 19.0094 172.287 19.2661 173.225 19.4669C174.186 19.6677 175.091 19.8797 175.94 20.1029C176.789 20.3037 177.482 20.5938 178.018 20.9731C178.554 21.3525 178.822 21.8881 178.822 22.5798L178.821 22.6832C178.802 23.1943 178.646 23.6175 178.353 23.9522L178.294 24.0179C177.991 24.3422 177.62 24.5881 177.18 24.7555C176.733 24.934 176.264 25.0567 175.772 25.1237C175.281 25.1906 174.867 25.2241 174.532 25.2241V24.7357C174.838 24.7357 175.228 24.7053 175.707 24.64C176.16 24.5783 176.59 24.4655 176.999 24.3022L177.003 24.3005L177.006 24.2992C177.405 24.1474 177.728 23.924 177.985 23.6304C178.207 23.3777 178.334 23.0412 178.334 22.5797C178.334 22.0361 178.134 21.6534 177.736 21.3713C177.264 21.0379 176.634 20.7684 175.827 20.5776L175.816 20.5748C174.976 20.354 174.079 20.1439 173.125 19.9446L173.123 19.9439C172.163 19.7385 171.247 19.4758 170.375 19.155L170.365 19.1509C169.458 18.7934 168.7 18.2976 168.107 17.6558L168.101 17.6489C167.465 16.9348 167.173 15.9934 167.173 14.8811C167.173 13.2295 167.778 11.9057 169.009 10.9769C170.247 10.0384 172.012 9.60644 174.231 9.60642C175.745 9.60642 177.021 9.8455 178.027 10.3569L178.213 10.4478C179.126 10.9129 179.842 11.517 180.337 12.2701C180.869 13.0455 181.188 13.889 181.286 14.7952L181.345 15.3356H177.821L177.768 14.9083C177.696 14.3339 177.412 13.8284 176.87 13.3839L176.866 13.3812L176.863 13.3781C176.395 12.9798 175.536 12.725 174.164 12.725C172.868 12.725 171.977 12.9235 171.425 13.2569C170.913 13.5664 170.664 14.0069 170.664 14.6468C170.664 15.1608 170.857 15.5181 171.251 15.7803C171.729 16.0988 172.368 16.3705 173.182 16.5846C174.024 16.7836 174.91 16.9825 175.841 17.1818C176.826 17.3655 177.757 17.6296 178.633 17.9751C179.548 18.3358 180.31 18.8592 180.903 19.5506C181.536 20.2659 181.825 21.2173 181.825 22.3454C181.825 24.1209 181.132 25.5259 179.739 26.4947L179.737 26.4957C178.4 27.4182 176.639 27.8543 174.499 27.8543C172.905 27.8543 171.521 27.5891 170.366 27.0364L170.362 27.0347C169.249 26.4905 168.373 25.769 167.759 24.8613L167.758 24.859L167.756 24.8562C167.153 23.9404 166.811 22.9449 166.738 21.8766L166.702 21.3553H170.273Z" fill="#202939"/>
    <path d="M163.045 10.3625H160.531V13.0737C159.945 12.216 159.191 11.5247 158.271 11.0004L158.085 10.898C157.163 10.3959 156.064 10.1291 154.789 10.0978L154.532 10.0947C152.901 10.0947 151.471 10.4852 150.242 11.2662L150.019 11.4117C148.919 12.1557 148.055 13.1449 147.426 14.3791C146.756 15.6734 146.421 17.1238 146.421 18.7305L146.425 19.0259C146.464 20.4955 146.798 21.8476 147.426 23.0819C148.097 24.3985 149.035 25.4473 150.242 26.2283C151.394 26.9395 152.723 27.3171 154.228 27.3616L154.532 27.3663C155.917 27.3663 157.102 27.0985 158.085 26.563C159.09 26.0274 159.906 25.3134 160.531 24.4208V27.0986H163.045V10.3625ZM160.177 18.7304C160.177 17.6342 159.966 16.6455 159.552 15.7565C159.142 14.8772 158.542 14.1769 157.747 13.6471L157.742 13.6437C156.99 13.1301 156.042 12.8589 154.867 12.8588C153.718 12.8588 152.752 13.129 151.949 13.6502C151.13 14.182 150.508 14.8843 150.078 15.7646C149.644 16.6518 149.423 17.6377 149.423 18.7304C149.423 19.7991 149.643 20.7867 150.08 21.6998C150.51 22.5784 151.131 23.2795 151.949 23.8106C152.752 24.3318 153.718 24.6019 154.867 24.6019L154.867 25.0902L154.638 25.0868C153.582 25.055 152.653 24.801 151.853 24.3251L151.683 24.2199C150.789 23.6398 150.108 22.8699 149.638 21.9104C149.199 20.9899 148.965 20.0006 148.937 18.9428L148.935 18.7305C148.935 17.5701 149.169 16.5102 149.638 15.5507C150.078 14.6511 150.705 13.918 151.518 13.3519L151.683 13.2411C152.577 12.6609 153.638 12.3708 154.867 12.3708L155.099 12.374C156.249 12.408 157.222 12.6972 158.018 13.2411C158.889 13.8213 159.548 14.5911 159.995 15.5507C160.442 16.5102 160.666 17.5701 160.666 18.7305C160.666 19.8686 160.442 20.9285 159.995 21.9104C159.548 22.8699 158.889 23.6398 158.018 24.2199C157.169 24.8001 156.118 25.0902 154.867 25.0902L154.867 24.6019C156.042 24.6019 156.99 24.3306 157.742 23.817L157.747 23.8136C158.542 23.2838 159.142 22.5835 159.552 21.7043C159.967 20.7904 160.177 19.8011 160.177 18.7304ZM163.534 27.5867H160.043V25.7429C159.54 26.2299 158.965 26.6462 158.318 26.9911L158.319 26.9915C157.249 27.5743 155.98 27.8543 154.532 27.8543C152.822 27.8543 151.301 27.4558 149.985 26.6435L149.98 26.6404L149.976 26.6377C148.695 25.8086 147.699 24.6938 146.991 23.3029C146.283 21.9129 145.932 20.3858 145.932 18.7304C145.932 17.0551 146.282 15.5275 146.991 14.1578L147.127 13.9001C147.825 12.6287 148.778 11.61 149.981 10.853C151.297 10.0172 152.82 9.60642 154.532 9.60642C155.98 9.60645 157.249 9.88641 158.319 10.4692C158.966 10.8143 159.541 11.2347 160.043 11.7294V9.87405H163.534V27.5867Z" fill="#202939"/>
    <path d="M143.574 12.0695C143.574 9.88264 142.893 8.15325 141.53 6.88131C140.209 5.62761 138.417 4.98082 136.153 4.94162L135.932 4.93992L135.933 4.45165C138.392 4.45167 140.391 5.12604 141.866 6.52732C143.344 7.90745 144.063 9.77457 144.063 12.0696C144.063 14.3661 143.343 16.2432 141.866 17.6449L141.863 17.6476C140.387 19.025 138.39 19.6871 135.933 19.6872H128.947V27.5867H125.456V4.45165H135.933L135.932 4.93992H125.944V27.0985H128.458V19.1991H135.932L136.153 19.1972C138.344 19.1599 140.093 18.5636 141.4 17.4086L141.53 17.2911C142.85 16.0374 143.531 14.3646 143.572 12.2732L143.574 12.0695ZM140.572 12.0696C140.572 10.7023 140.161 9.68005 139.383 8.94212C138.612 8.21047 137.434 7.80452 135.765 7.80452H128.947V16.3677H135.765L135.765 16.856H128.458V7.31645H135.765C137.508 7.31645 138.826 7.74043 139.72 8.58839C140.614 9.43635 141.06 10.5967 141.06 12.0695L141.059 12.2085C141.032 13.6373 140.586 14.7626 139.72 15.5841C138.826 16.432 137.508 16.856 135.765 16.856L135.765 16.3677C137.434 16.3677 138.612 15.9617 139.383 15.2301C140.16 14.4936 140.572 13.4616 140.572 12.0696Z" fill="#202939"/>
    <path d="M121.331 19.7347V18.7305C121.331 17.1238 120.996 15.6734 120.326 14.3791C119.655 13.0626 118.694 12.0249 117.443 11.2662C116.291 10.5341 114.923 10.1449 113.339 10.0991L113.019 10.0947C111.321 10.0947 109.846 10.4852 108.595 11.2662C107.343 12.0249 106.383 13.0626 105.712 14.3791C105.042 15.6734 104.707 17.1238 104.707 18.7305L104.711 19.0259C104.752 20.4955 105.096 21.8476 105.746 23.0819C106.461 24.3985 107.455 25.4473 108.729 26.2283C109.923 26.9396 111.303 27.3172 112.871 27.3616L113.187 27.3663C115.113 27.3663 116.693 26.9264 117.928 26.047L118.046 25.9605C119.32 25.001 120.247 23.7737 120.828 22.2786H118.08C117.633 23.1042 117.007 23.7848 116.203 24.3204L116.05 24.4136C115.274 24.8646 114.33 25.0902 113.22 25.0902L113.22 24.6019C114.332 24.6019 115.228 24.3618 115.936 23.911C116.674 23.4188 117.243 22.7984 117.65 22.0465L117.788 21.7904H121.542L121.284 22.4551C120.67 24.0341 119.687 25.3354 118.341 26.35L118.34 26.351C116.983 27.367 115.252 27.8543 113.187 27.8543C111.413 27.8543 109.838 27.4573 108.478 26.6472L108.476 26.6459L108.473 26.6442C107.126 25.8182 106.072 24.706 105.316 23.3145L105.314 23.3117L105.313 23.3087C104.581 21.9176 104.218 20.3885 104.218 18.7304C104.218 17.1586 104.526 15.7168 105.149 14.4136L105.278 14.1548C105.989 12.7595 107.012 11.6547 108.341 10.8489C109.68 10.0147 111.246 9.60643 113.019 9.60642C114.815 9.60642 116.385 10.0151 117.706 10.8543C119.03 11.6597 120.05 12.7626 120.76 14.1548C121.469 15.5252 121.82 17.0538 121.82 18.7304V20.2228H107.87C108.023 20.9257 108.281 21.5803 108.642 22.1888C109.11 22.9194 109.73 23.5092 110.508 23.9604C111.274 24.3831 112.173 24.6019 113.22 24.6019L113.22 25.0902L113.012 25.0874C111.98 25.06 111.067 24.8266 110.271 24.3873C109.421 23.8964 108.74 23.2493 108.226 22.4459C107.734 21.6203 107.422 20.7165 107.288 19.7347H121.331ZM113.019 12.3708C114.628 12.3708 115.924 12.8506 116.907 13.8101C117.89 14.7696 118.493 15.9635 118.717 17.3916H107.321C107.567 15.9635 108.17 14.7696 109.131 13.8101C110.114 12.8506 111.41 12.3708 113.019 12.3708ZM113.019 12.8588C111.514 12.8589 110.349 13.3039 109.473 14.1592C108.72 14.9125 108.204 15.8233 107.926 16.9033H118.121C117.856 15.8238 117.338 14.9132 116.565 14.1592C115.689 13.3039 114.523 12.8588 113.019 12.8588Z" fill="#202939"/>
    <path d="M102.292 10.0947L102.101 10.0967C101.153 10.1177 100.323 10.2955 99.6111 10.6302C98.8738 10.965 98.2593 11.3778 97.7677 11.8687L97.5885 12.0525C97.1828 12.4821 96.8627 12.9119 96.6281 13.3415C96.3823 13.8101 96.2148 14.1895 96.1254 14.4795V10.3625H93.6116V27.0986H96.1254V19.7347C96.1254 18.5074 96.36 17.3582 96.8292 16.287C97.2901 15.262 97.9276 14.4231 98.7419 13.7707L98.9073 13.6427C99.7661 12.9942 100.772 12.6495 101.926 12.6089L102.158 12.6051H102.46V10.0947H102.292L102.293 9.60642H102.949V13.0931H102.159C101.004 13.0931 100.026 13.4101 99.2022 14.0319L99.2005 14.0332C98.379 14.6485 97.7373 15.4607 97.2772 16.4824L97.197 16.6721C96.8094 17.6245 96.614 18.6438 96.614 19.7345V27.5867H93.1227V9.87405H96.614V12.4581C96.8446 12.1424 97.1143 11.8308 97.4221 11.5234C97.9613 10.9849 98.6267 10.5406 99.4088 10.1856C100.245 9.79377 101.211 9.60642 102.293 9.60642L102.292 10.0947Z" fill="#202939"/>
    <path d="M89.2728 18.7305C89.2728 17.1238 88.9376 15.6734 88.2672 14.3791C87.5969 13.0626 86.6361 12.0249 85.3848 11.2662C84.2327 10.5341 82.8645 10.1449 81.2804 10.0991L80.9606 10.0947C79.2624 10.0947 77.7876 10.4852 76.5363 11.2662C75.285 12.0249 74.3242 13.0626 73.6539 14.3791C72.9836 15.6734 72.6484 17.1238 72.6484 18.7305C72.6484 20.3149 72.9836 21.7653 73.6539 23.0819C74.3242 24.3985 75.285 25.4473 76.5363 26.2283C77.7094 26.9396 79.079 27.3172 80.6449 27.3616L80.9606 27.3663C82.6273 27.3663 84.0635 27.0102 85.2689 26.2982L85.3848 26.2283C86.5579 25.4961 87.4755 24.5283 88.138 23.3254L88.2672 23.0819C88.9376 21.7653 89.2728 20.3149 89.2728 18.7305ZM86.2702 18.7304C86.2702 17.6342 86.0593 16.6455 85.6453 15.7565C85.2358 14.8772 84.6358 14.1769 83.8399 13.6471L83.8352 13.6437C83.0835 13.1301 82.1349 12.8589 80.9606 12.8588C79.8111 12.8588 78.8589 13.1291 78.0809 13.6471C77.2851 14.1769 76.6851 14.8772 76.2756 15.7565C75.8616 16.6455 75.651 17.6342 75.651 18.7304C75.651 19.8011 75.8604 20.7904 76.2756 21.7043C76.6851 22.5835 77.2851 23.2838 78.0809 23.8136C78.8589 24.3316 79.8111 24.6019 80.9606 24.6019L80.9606 25.0902L80.7322 25.0868C79.6764 25.055 78.7576 24.801 77.9756 24.3251L77.81 24.2199C76.9385 23.6398 76.2794 22.8699 75.8325 21.9104C75.3856 20.9285 75.1621 19.8686 75.1621 18.7305C75.1621 17.5701 75.3856 16.5102 75.8325 15.5507C76.2794 14.5911 76.9385 13.8213 77.81 13.2411C78.6814 12.6609 79.7316 12.3708 80.9606 12.3708L81.1928 12.374C82.3423 12.408 83.3151 12.6972 84.1112 13.2411C84.9826 13.8213 85.6418 14.5911 86.0886 15.5507C86.5355 16.5102 86.759 17.5701 86.759 18.7305C86.759 19.8686 86.5355 20.9285 86.0886 21.9104C85.6418 22.8699 84.9826 23.6398 84.1112 24.2199C83.2621 24.8001 82.2119 25.0902 80.9606 25.0902L80.9606 24.6019C82.1349 24.6019 83.0835 24.3306 83.8352 23.817L83.8399 23.8136C84.6358 23.2838 85.2358 22.5835 85.6453 21.7043C86.0605 20.7904 86.2702 19.8011 86.2702 18.7304ZM89.7616 18.7304C89.7616 20.3859 89.4106 21.9129 88.7029 23.3029C87.9924 24.6983 86.9707 25.814 85.6439 26.6421L85.6419 26.6435C84.3221 27.4583 82.7544 27.8543 80.9606 27.8543C79.1876 27.8543 77.622 27.4576 76.2827 26.6455L76.2773 26.6421C74.9505 25.814 73.9288 24.6983 73.2183 23.3029C72.5105 21.9129 72.1596 20.3859 72.1596 18.7304C72.1596 17.1586 72.4674 15.7168 73.0908 14.4136L73.2196 14.1548C73.9307 12.7595 74.9538 11.6547 76.2827 10.8489C77.6217 10.0147 79.1873 9.60642 80.9606 9.60642C82.757 9.60643 84.3267 10.0151 85.6473 10.8543C86.973 11.6602 87.9934 12.7642 88.7029 14.1578C89.4117 15.5275 89.7616 17.055 89.7616 18.7304Z" fill="#202939"/>
    <path d="M51.1831 16.019C51.1831 14.3454 51.5071 12.8392 52.1551 11.5003C52.8031 10.1614 53.7527 9.10143 55.004 8.32041C56.2777 7.51708 57.8083 7.11542 59.5959 7.11542L59.9358 7.12012C61.6168 7.16719 63.023 7.56736 64.1542 8.32041C65.2854 9.07354 66.1318 10.0719 66.6935 11.3154L66.802 11.5672H69.4498C68.9806 10.206 68.2767 9.01217 67.3383 7.98569C66.4585 7.02346 65.4019 6.25735 64.1687 5.68731L63.9195 5.5757C62.5789 4.9732 61.0706 4.67195 59.3948 4.67195C57.1826 4.67195 55.2722 5.18519 53.6634 6.21167C52.0546 7.21583 50.8144 8.57703 49.943 10.2953C49.0939 12.0135 48.6694 13.9214 48.6694 16.019L48.6742 16.4102C48.724 18.3544 49.147 20.1319 49.943 21.7427C50.8144 23.461 52.0546 24.8333 53.6634 25.8598C55.2722 26.864 57.1826 27.3661 59.3948 27.3661C60.9658 27.3661 62.3897 27.1112 63.6662 26.6013L63.9195 26.4958C65.2602 25.8933 66.3998 25.0788 67.3383 24.0523C68.2767 23.0035 68.9806 21.8097 69.4498 20.4708H66.802C66.2434 21.832 65.3608 22.9143 64.1542 23.7176C62.9475 24.5209 61.4281 24.9226 59.5959 24.9226L59.5959 24.4347C61.357 24.4347 62.7755 24.0488 63.883 23.3114C65.0072 22.563 65.8275 21.5584 66.3498 20.2858L66.4743 19.9827H70.1388L69.911 20.632C69.4208 22.0309 68.6843 23.2808 67.7027 24.3778L67.701 24.3795L67.6993 24.3816C66.7133 25.46 65.518 26.3128 64.12 26.9411L64.1139 26.9438C62.7035 27.5542 61.1277 27.8543 59.3947 27.8543C57.1065 27.8543 55.1029 27.334 53.4042 26.2737L53.4001 26.2713C51.7169 25.1973 50.4173 23.7587 49.5068 21.9634L49.5058 21.961L49.5048 21.959C48.6194 20.1673 48.1805 18.1843 48.1805 16.019C48.1805 13.8537 48.6194 11.8709 49.5048 10.0794L49.5058 10.077L49.5068 10.0749C50.4171 8.28021 51.7165 6.85224 53.4001 5.80036C55.0994 4.71619 57.1045 4.18403 59.3947 4.18402C61.1274 4.18402 62.7032 4.49531 64.1135 5.12788C65.5143 5.73406 66.712 6.57685 67.6993 7.65674C68.6844 8.7342 69.4219 9.98643 69.9121 11.4083L70.1351 12.0556H66.4743L66.3498 11.7526C65.8275 10.4799 65.0072 9.47502 63.883 8.72658C62.7755 7.98925 61.357 7.60363 59.5959 7.60362C57.8833 7.60362 56.4471 7.98788 55.2651 8.73339L55.2631 8.73441C54.0907 9.46617 53.2034 10.4559 52.5952 11.7127C51.9831 12.9775 51.6719 14.4097 51.6719 16.019C51.6719 17.6037 51.9821 19.0366 52.5952 20.3256L52.7128 20.5585C53.3158 21.7067 54.1648 22.6311 55.2651 23.3383C56.4469 24.0615 57.8833 24.4347 59.5959 24.4347L59.5959 24.9226L59.2638 24.9182C57.6181 24.8725 56.1981 24.4833 55.004 23.7511C53.7527 22.9477 52.8031 21.8766 52.1551 20.5378C51.5477 19.2617 51.225 17.8581 51.187 16.3271L51.1831 16.019Z" fill="#202939"/>
    <path fill-rule="evenodd" clip-rule="evenodd" d="M16.0214 27.1186C22.1702 27.1186 27.1549 22.1407 27.1549 16C27.1549 9.85934 22.1702 4.88136 16.0214 4.88136C9.87252 4.88136 4.88788 9.85934 4.88788 16C4.88788 22.1407 9.87252 27.1186 16.0214 27.1186ZM16.0214 32C24.8697 32 32.0428 24.8366 32.0428 16C32.0428 7.16344 24.8697 0 16.0214 0C7.17302 0 0 7.16344 0 16C0 24.8366 7.17302 32 16.0214 32ZM28.2281 24.7038C33.4629 24.7038 37.7065 20.4659 37.7065 15.2381C37.7065 10.0103 33.4629 5.7724 28.2281 5.7724C22.9934 5.7724 18.7498 10.0103 18.7498 15.2381C18.7498 20.4659 22.9934 24.7038 28.2281 24.7038ZM28.2281 28.1905C35.3911 28.1905 41.1978 22.3915 41.1978 15.2381C41.1978 8.08469 35.3911 2.28571 28.2281 2.28571C21.0652 2.28571 15.2585 8.08469 15.2585 15.2381C15.2585 22.3915 21.0652 28.1905 28.2281 28.1905Z" fill="#202939"/>
</svg>