<svg width="64" height="64" viewBox="0 0 64 64" fill="none" xmlns="http://www.w3.org/2000/svg">
    <path fill-rule="evenodd" clip-rule="evenodd"
          d="M26.2222 45.8983C33.9833 45.8983 40.275 39.6758 40.275 32C40.275 24.3242 33.9833 18.1017 26.2222 18.1017C18.4611 18.1017 12.1695 24.3242 12.1695 32C12.1695 39.6758 18.4611 45.8983 26.2222 45.8983ZM26.2222 52C37.3906 52 46.4444 43.0457 46.4444 32C46.4444 20.9543 37.3906 12 26.2222 12C15.0538 12 6 20.9543 6 32C6 43.0457 15.0538 52 26.2222 52ZM41.6296 42.8797C48.2369 42.8797 53.5932 37.5823 53.5932 31.0476C53.5932 24.5129 48.2369 19.2155 41.6296 19.2155C35.0223 19.2155 29.666 24.5129 29.666 31.0476C29.666 37.5823 35.0223 42.8797 41.6296 42.8797ZM41.6296 47.2381C50.6707 47.2381 58 39.9894 58 31.0476C58 22.1059 50.6707 14.8571 41.6296 14.8571C32.5885 14.8571 25.2593 22.1059 25.2593 31.0476C25.2593 39.9894 32.5885 47.2381 41.6296 47.2381Z"
          fill="#2563EB"/>
</svg>
