<svg width="190" height="49" viewBox="0 0 190 49" fill="none" xmlns="http://www.w3.org/2000/svg">
<path d="M11.2231 34.0916C8.93953 34.0423 6.7654 33.0582 5.16708 31.3505C3.56877 29.6428 2.6736 27.3476 2.6736 24.9571C2.6736 22.5666 3.56877 20.2713 5.16708 18.5637C6.7654 16.856 8.93953 15.8719 11.2231 15.8226C12.8292 15.8213 14.4019 16.303 15.7539 17.2103L15.7368 17.2376L17.0695 15.1668C15.3322 13.9755 13.3 13.3418 11.2231 13.3438C8.31119 13.3768 5.53102 14.6188 3.49382 16.7966C1.45663 18.9745 0.329166 21.9099 0.359324 24.9575C0.329166 28.005 1.45665 30.9403 3.49387 33.118C5.53109 35.2957 8.31126 36.5376 11.2231 36.5704C13.306 36.5723 15.3437 35.9352 17.0843 34.738L15.7338 32.7171C14.3864 33.6164 12.8212 34.0933 11.2231 34.0916Z" fill="#636A7C"/>
<path d="M170.904 18.7646C167.417 18.7646 164.843 21.9576 164.843 25.4916C164.843 28.8909 167.257 32.2178 170.85 32.2178C172.499 32.1681 174.061 31.4357 175.194 30.1815C176.327 28.9273 176.938 27.2537 176.894 25.5282C176.894 22.1842 174.498 18.7646 170.904 18.7646ZM170.885 29.9399C168.653 29.9399 167.327 27.7898 167.327 25.4924C167.327 23.3064 168.596 21.0643 170.868 21.0643C173.048 21.0643 174.407 23.1943 174.407 25.4924C174.408 27.6784 173.157 29.9399 170.885 29.9399Z" fill="#636A7C"/>
<path d="M109.897 18.8574L104.89 32.1245H107.501L108.662 28.8171H113.114L114.276 32.1245H116.887L111.902 18.8574H109.897ZM109.074 27.0049L110.898 21.6431L112.668 27.0049H109.074Z" fill="#636A7C"/>
<path d="M143.548 18.8574L138.541 32.1245H141.152L142.314 28.8171H146.766L147.928 32.1245H150.539L145.554 18.8574H143.548ZM142.725 27.0041L144.548 21.6423L146.319 27.0041H142.725Z" fill="#636A7C"/>
<path d="M103.692 18.8574L100.295 28.891L96.8617 18.8574H94.2693L99.2547 32.1237H101.329L106.285 18.8574H103.692Z" fill="#636A7C"/>
<path d="M120.284 18.8574H117.818V32.1252H126.757V29.8668H120.284L120.284 18.8574Z" fill="#636A7C"/>
<path d="M135.841 25.6226C135.841 27.7914 135.09 29.94 132.729 29.94C130.423 29.94 129.654 27.8459 129.654 25.6226V18.8574H127.186V25.6218C127.186 29.0608 128.689 32.2179 132.747 32.2179C136.662 32.2179 138.289 29.2469 138.289 25.6218V18.8574H135.84L135.841 25.6226Z" fill="#636A7C"/>
<path d="M163.376 18.8779H160.909V32.1255H163.376V18.8779Z" fill="#636A7C"/>
<path d="M186.889 18.8769V27.5664L180.274 18.8574H178.361V32.1252H180.828V23.6235L187.354 32.1252H189.356V18.8769H186.889Z" fill="#636A7C"/>
<path d="M149.197 21.1158H153.256V32.1252H155.723V21.1158H159.764V18.8574H149.198L149.197 21.1158Z" fill="#636A7C"/>
<path d="M61.4681 18.7656L55.9915 32.218H56.9707L58.7655 27.7845H64.9125L66.7072 32.218H67.7051L62.2285 18.7656H61.4681ZM58.9843 26.9894L61.8483 19.94L64.6587 26.9894H58.9843Z" fill="#636A7C"/>
<path d="M47.0155 18.7656H46.0906V32.2196H54.7028V31.3481H47.0155V18.7656Z" fill="#636A7C"/>
<path d="M38.166 31.4471C35.264 31.4471 33.0169 28.6233 33.0169 25.4592C33.0169 22.6167 34.8481 19.5849 38.1117 19.5849C38.9442 19.5502 39.7686 19.7677 40.4859 20.2114C41.2032 20.6552 41.7828 21.3062 42.1551 22.0863L42.917 21.6307C42.4845 20.7143 41.8071 19.949 40.9671 19.4277C40.127 18.9064 39.1604 18.6515 38.1846 18.694C34.322 18.694 32.0919 22.1626 32.0919 25.4023C32.0919 28.8133 34.5757 32.3372 38.0931 32.3372C40.0701 32.3372 42.3344 31.2384 43.1886 29.2105L42.4088 28.8125C42.0008 29.617 41.3891 30.2883 40.6407 30.7531C39.8923 31.2178 39.0361 31.4579 38.166 31.4471Z" fill="#636A7C"/>
<path d="M74.2151 25.0582C71.5855 24.4889 70.4441 24.0341 70.4441 22.31C70.4441 20.6239 71.5319 19.5438 74.0522 19.5438C74.7076 19.5021 75.3637 19.611 75.9746 19.863C76.5854 20.115 77.1362 20.5039 77.5881 21.0024L78.0606 20.2454C77.5263 19.7175 76.8966 19.3064 76.2086 19.0363C75.5206 18.7662 74.788 18.6424 74.0537 18.6723C71.3519 18.6723 69.5028 20.018 69.5028 22.4423C69.5028 24.6408 70.991 25.2848 73.7441 25.8915C76.4467 26.4974 77.7689 27.104 77.7689 28.8851C77.7689 30.6108 76.4087 31.4807 74.1787 31.4807C73.3202 31.5067 72.4657 31.3487 71.6676 31.0166C70.8696 30.6845 70.1448 30.1852 69.5378 29.5494L69.0474 30.3281C70.4306 31.6676 72.2591 32.3883 74.143 32.3366C76.8805 32.3366 78.7474 31.1427 78.7474 28.7745C78.7482 26.3821 77.0077 25.6812 74.2151 25.0582Z" fill="#636A7C"/>
<path d="M85.8572 25.0583C83.2276 24.489 82.0854 24.0342 82.0854 22.31C82.0854 20.624 83.174 19.5438 85.6943 19.5438C86.3495 19.5022 87.0056 19.6112 87.6163 19.8632C88.227 20.1152 88.7776 20.504 89.2295 21.0025L89.702 20.2455C89.1676 19.7173 88.5379 19.3061 87.8497 19.036C87.1615 18.7659 86.4287 18.6423 85.6943 18.6724C82.9917 18.6724 81.1426 20.0181 81.1426 22.4424C81.1426 24.6409 82.6308 25.2849 85.384 25.8916C88.0858 26.4974 89.4088 27.1041 89.4088 28.8851C89.4088 30.6109 88.0486 31.4808 85.8185 31.4808C84.9598 31.5068 84.1051 31.3489 83.3068 31.0167C82.5085 30.6846 81.7834 30.1853 81.1761 29.5494L80.6873 30.3282C82.0699 31.668 83.8984 32.3888 85.7821 32.3366C88.5196 32.3366 90.388 31.1428 90.388 28.7746C90.3903 26.3822 88.6491 25.6813 85.8572 25.0583Z" fill="#636A7C"/>
<path d="M5.08133 28.708L6.44897 30.7141L11.3764 22.9499L9.95217 20.7607L5.08133 28.708Z" fill="#636A7C"/>
<path d="M16.3402 26.4604L11.3235 18.517L9.94846 20.7598L11.3727 22.9489L16.3722 30.612L27.5976 12.5703H24.9792L16.3402 26.4604Z" fill="#636A7C"/>
<path d="M12.8244 27.5479H11.357V29.0836H12.8244V27.5479Z" fill="#636A7C"/>
<path d="M10.8987 29.6807H9.4313V31.2366H10.8987V29.6807Z" fill="#636A7C"/>
<path d="M12.8006 29.6855H11.3332V31.2213H12.8006V29.6855Z" fill="#636A7C"/>
<path d="M10.8949 27.5234H9.42758V29.0716H10.8949V27.5234Z" fill="#636A7C"/>
</svg>
