<svg width="151" height="49" viewBox="0 0 151 49" fill="none" xmlns="http://www.w3.org/2000/svg">
<path d="M145.953 14.4922C145.953 14.1016 146.051 13.7354 146.246 13.3936C146.442 13.0518 146.71 12.7823 147.052 12.585C147.394 12.3877 147.762 12.2891 148.156 12.2891C148.545 12.2891 148.909 12.3858 149.251 12.5791C149.591 12.7725 149.86 13.0415 150.059 13.3862C150.257 13.7309 150.356 14.0996 150.356 14.4922C150.356 14.8809 150.26 15.2451 150.067 15.585C149.875 15.9249 149.609 16.1944 149.27 16.3936C148.93 16.5928 148.559 16.6924 148.156 16.6924C147.752 16.6924 147.379 16.5913 147.037 16.3892C146.695 16.1871 146.429 15.917 146.239 15.5791C146.048 15.2412 145.953 14.8789 145.953 14.4922ZM146.314 14.4922C146.314 14.8203 146.395 15.1255 146.557 15.4077C146.719 15.6899 146.942 15.915 147.228 16.083C147.513 16.251 147.822 16.335 148.156 16.335C148.494 16.335 148.806 16.25 149.093 16.0801C149.378 15.9102 149.601 15.6841 149.759 15.4019C149.917 15.1197 149.996 14.8165 149.996 14.4922C149.996 14.1699 149.916 13.8667 149.756 13.5825C149.596 13.2983 149.374 13.0718 149.089 12.9028C148.806 12.7339 148.494 12.6494 148.156 12.6494C147.828 12.6494 147.521 12.7319 147.235 12.897C146.948 13.062 146.724 13.2876 146.56 13.5738C146.396 13.86 146.314 14.166 146.314 14.4922ZM149.126 13.9766C149.126 14.1387 149.081 14.2803 148.993 14.4014C148.903 14.5225 148.776 14.6182 148.61 14.6885L149.228 15.7813H148.643L148.139 14.8292H147.872V15.7813H147.351V13.209H148.139C148.797 13.209 149.126 13.4648 149.126 13.9766ZM147.872 14.4072H148.083C148.247 14.4072 148.373 14.372 148.461 14.3017C148.549 14.2314 148.593 14.1347 148.593 14.0117C148.593 13.8691 148.548 13.7705 148.46 13.7158C148.37 13.6611 148.245 13.6338 148.083 13.6338H147.872V14.4072Z" fill="#636A7C"/>
<path d="M20.1553 22.6703L21.0552 18.4703H11.9557L12.7557 14.8703H23.1551L24.0551 10.5703H5.15612L0.356323 31.7703H19.8553L20.7552 27.2703H10.0558L11.0557 22.6703H20.1553Z" fill="#636A7C"/>
<path d="M45.454 22.6708C45.854 20.6708 46.154 18.7708 46.154 18.7708C47.3539 12.1708 40.7543 12.1708 36.5545 12.0708C30.4548 11.8708 25.2551 11.8708 23.3552 19.3708C23.3552 19.3708 22.3553 23.2708 22.1553 26.2708C21.8553 32.3708 28.355 32.1708 31.8548 32.3708C35.3546 32.4708 37.5545 31.7708 37.5545 31.7708L43.3542 38.5708H52.1537L38.8543 22.6708H45.454ZM38.6543 19.0708C38.6543 19.0708 38.1543 22.6708 36.8544 26.2708C36.2544 27.9708 34.2545 28.8708 32.7546 28.8708C31.0547 28.8708 29.1548 27.9708 29.6548 25.4708C29.6548 25.4708 30.1548 22.0708 31.4547 18.2708C31.4547 18.2708 32.5546 15.4708 35.5545 15.6708C35.5545 15.6708 39.3543 15.0708 38.6543 19.0708Z" fill="#636A7C"/>
<path d="M63.653 12.9707L60.5532 26.6707C59.9532 29.1707 56.8534 28.7707 56.8534 28.7707C54.4535 28.7707 54.4535 26.5707 54.4535 26.5707C54.9535 23.8707 57.4533 13.0707 57.4533 13.0707H49.7537C49.1537 15.2707 47.2538 23.9707 47.2538 23.9707L54.3534 32.2707C56.3534 32.5707 58.1533 32.5707 59.1532 32.5707C65.0529 32.2707 67.6528 29.9707 68.1527 28.2707C68.6527 26.5707 71.6525 13.0707 71.6525 13.0707H63.6529L63.653 12.9707Z" fill="#636A7C"/>
<path d="M74.3525 12.9707L70.2527 31.7707H77.9523L82.252 12.9707H74.3525Z" fill="#636A7C"/>
<path d="M99.1512 20.0707H91.4516L92.3515 16.5707H101.251L102.151 12.9707H85.1519L81.0521 31.7707H88.8517L90.7516 23.6707H98.3512L99.1512 20.0707Z" fill="#636A7C"/>
<path d="M136.649 12.9707L131.749 17.7707L128.75 12.9707H118.75L124.95 22.3707L118.65 28.1707L116.75 12.9707H107.351L94.0514 31.7707H99.5511L102.351 27.5707H110.551L110.951 31.6707H122.65L128.05 26.0707L131.349 31.6707H140.949L134.349 21.6707L144.249 12.9707H136.649ZM104.951 23.5707L109.251 17.3707L109.851 23.5707H104.951Z" fill="#636A7C"/>
</svg>
