<svg width="138" height="49" viewBox="0 0 138 49" fill="none" xmlns="http://www.w3.org/2000/svg">
<path d="M28.2873 42.3899H41.3515L31.4587 25.1639L29.3459 28.8379L35.0171 38.7138H30.4002L18.3674 17.7654L20.6769 13.7444L25.9632 22.9473L28.074 19.2712L20.6769 6.39001L14.1437 17.7654L28.2873 42.3899Z" fill="#33415B"/>
<path fill-rule="evenodd" clip-rule="evenodd" d="M54.1852 30.1172C54.0437 30.1172 53.9517 30.0471 53.9092 29.9068L53.2722 27.845C53.2439 27.7889 53.2085 27.7609 53.1661 27.7609H47.943C47.9005 27.7609 47.8652 27.7889 47.8368 27.845L47.2211 29.9068C47.1786 30.0471 47.0866 30.1172 46.9451 30.1172H44.2486C44.1637 30.1172 44.1 30.0962 44.0575 30.0541C44.0151 29.998 44.008 29.9209 44.0363 29.8227L48.6224 15.6004C48.6649 15.4601 48.7569 15.39 48.8984 15.39H52.2319C52.3734 15.39 52.4654 15.4601 52.5079 15.6004L57.094 29.8227C57.1081 29.8507 57.1152 29.8858 57.1152 29.9279C57.1152 30.0541 57.0374 30.1172 56.8817 30.1172H54.1852ZM48.6012 25.3414C48.587 25.4255 48.6154 25.4676 48.6861 25.4676H52.423C52.5079 25.4676 52.5362 25.4255 52.5079 25.3414L50.597 19.0928C50.5828 19.0367 50.5616 19.0157 50.5333 19.0297C50.505 19.0297 50.4838 19.0508 50.4696 19.0928L48.6012 25.3414Z" fill="#33415B"/>
<path d="M59.2363 30.1172C59.1655 30.1172 59.1018 30.0962 59.0452 30.0541C59.0027 29.998 58.9815 29.9349 58.9815 29.8648V15.6425C58.9815 15.5723 59.0027 15.5162 59.0452 15.4741C59.1018 15.418 59.1655 15.39 59.2363 15.39H61.7204C61.7912 15.39 61.8478 15.418 61.8903 15.4741C61.9469 15.5162 61.9752 15.5723 61.9752 15.6425V27.4663C61.9752 27.5365 62.0106 27.5715 62.0814 27.5715H69.0242C69.095 27.5715 69.1516 27.5996 69.1941 27.6557C69.2507 27.6978 69.279 27.7539 69.279 27.824V29.8648C69.279 29.9349 69.2507 29.998 69.1941 30.0541C69.1516 30.0962 69.095 30.1172 69.0242 30.1172H59.2363Z" fill="#33415B"/>
<path fill-rule="evenodd" clip-rule="evenodd" d="M80.6565 29.9068C80.699 30.0471 80.791 30.1172 80.9325 30.1172H83.629C83.7847 30.1172 83.8626 30.0541 83.8626 29.9279C83.8626 29.8858 83.8555 29.8507 83.8413 29.8227L79.2552 15.6004C79.2128 15.4601 79.1207 15.39 78.9792 15.39H75.6458C75.5042 15.39 75.4122 15.4601 75.3698 15.6004L70.7837 29.8227C70.7553 29.9209 70.7624 29.998 70.8049 30.0541C70.8473 30.0962 70.911 30.1172 70.996 30.1172H73.6924C73.834 30.1172 73.926 30.0471 73.9684 29.9068L74.5842 27.845C74.6125 27.7889 74.6479 27.7609 74.6903 27.7609H79.9134C79.9559 27.7609 79.9913 27.7889 80.0196 27.845L80.6565 29.9068ZM75.4335 25.4676C75.3627 25.4676 75.3344 25.4255 75.3485 25.3414L77.2169 19.0928C77.2311 19.0508 77.2523 19.0297 77.2806 19.0297C77.309 19.0157 77.3302 19.0367 77.3443 19.0928L79.2552 25.3414C79.2835 25.4255 79.2552 25.4676 79.1703 25.4676H75.4335Z" fill="#33415B"/>
<path d="M95.2832 15.5583C95.354 15.4461 95.4531 15.39 95.5805 15.39H98.0646C98.1354 15.39 98.192 15.418 98.2345 15.4741C98.2911 15.5162 98.3194 15.5723 98.3194 15.6425V29.8648C98.3194 29.9349 98.2911 29.998 98.2345 30.0541C98.192 30.0962 98.1354 30.1172 98.0646 30.1172H95.5805C95.5097 30.1172 95.446 30.0962 95.3894 30.0541C95.3469 29.998 95.3257 29.9349 95.3257 29.8648V20.5866C95.3257 20.5305 95.3115 20.5024 95.2832 20.5024C95.2549 20.5024 95.2266 20.5235 95.1983 20.5656L92.9477 24.058C92.8769 24.1702 92.7778 24.2263 92.6504 24.2263H91.3978C91.2704 24.2263 91.1713 24.1702 91.1005 24.058L88.8499 20.5656C88.8216 20.5235 88.7933 20.5095 88.765 20.5235C88.7367 20.5235 88.7225 20.5515 88.7225 20.6076V29.8648C88.7225 29.9349 88.6942 29.998 88.6376 30.0541C88.5951 30.0962 88.5385 30.1172 88.4677 30.1172H85.9836C85.9128 30.1172 85.8491 30.0962 85.7925 30.0541C85.7501 29.998 85.7288 29.9349 85.7288 29.8648V15.6425C85.7288 15.5723 85.7501 15.5162 85.7925 15.4741C85.8491 15.418 85.9128 15.39 85.9836 15.39H88.4677C88.5951 15.39 88.6942 15.4461 88.765 15.5583L91.9498 20.4604C91.9923 20.5445 92.0347 20.5445 92.0772 20.4604L95.2832 15.5583Z" fill="#33415B"/>
<path d="M111.14 17.8726C111.197 17.8165 111.225 17.7534 111.225 17.6832V15.6425C111.225 15.5723 111.197 15.5162 111.14 15.4741C111.098 15.418 111.041 15.39 110.97 15.39H101.161C101.09 15.39 101.027 15.418 100.97 15.4741C100.928 15.5162 100.906 15.5723 100.906 15.6425V29.8648C100.906 29.9349 100.928 29.998 100.97 30.0541C101.027 30.0962 101.09 30.1172 101.161 30.1172H110.97C111.041 30.1172 111.098 30.0962 111.14 30.0541C111.197 29.998 111.225 29.9349 111.225 29.8648V27.824C111.225 27.7539 111.197 27.6978 111.14 27.6557C111.098 27.5996 111.041 27.5715 110.97 27.5715H104.006C103.935 27.5715 103.9 27.5365 103.9 27.4663V24.058C103.9 23.9879 103.935 23.9528 104.006 23.9528H108.571C108.642 23.9528 108.699 23.9318 108.741 23.8897C108.798 23.8336 108.826 23.7705 108.826 23.7004V21.6596C108.826 21.5895 108.798 21.5334 108.741 21.4913C108.699 21.4352 108.642 21.4071 108.571 21.4071H104.006C103.935 21.4071 103.9 21.3721 103.9 21.3019V18.0409C103.9 17.9708 103.935 17.9357 104.006 17.9357H110.97C111.041 17.9357 111.098 17.9147 111.14 17.8726Z" fill="#33415B"/>
<path fill-rule="evenodd" clip-rule="evenodd" d="M113.56 30.1172C113.49 30.1172 113.426 30.0962 113.369 30.0541C113.327 29.998 113.306 29.9349 113.306 29.8648V15.6425C113.306 15.5723 113.327 15.5162 113.369 15.4741C113.426 15.418 113.49 15.39 113.56 15.39H118.868C119.93 15.39 120.857 15.5793 121.65 15.958C122.457 16.3227 123.079 16.8417 123.518 17.5149C123.957 18.1882 124.176 18.9666 124.176 19.8502V25.657C124.176 26.5406 123.957 27.3191 123.518 27.9923C123.079 28.6655 122.457 29.1915 121.65 29.5702C120.857 29.9349 119.93 30.1172 118.868 30.1172H113.56ZM116.299 27.4663C116.299 27.5365 116.335 27.5715 116.405 27.5715H118.974C119.626 27.5715 120.149 27.3541 120.546 26.9193C120.956 26.4845 121.168 25.9024 121.183 25.1731V20.3341C121.183 19.6048 120.977 19.0227 120.567 18.5879C120.171 18.1531 119.633 17.9357 118.953 17.9357H116.405C116.335 17.9357 116.299 17.9708 116.299 18.0409V27.4663Z" fill="#33415B"/>
<path fill-rule="evenodd" clip-rule="evenodd" d="M134.794 29.9068C134.836 30.0471 134.928 30.1172 135.07 30.1172H137.766C137.922 30.1172 138 30.0541 138 29.9279C138 29.8858 137.993 29.8507 137.979 29.8227L133.393 15.6004C133.35 15.4601 133.258 15.39 133.117 15.39H129.783C129.642 15.39 129.55 15.4601 129.507 15.6004L124.921 29.8227C124.893 29.9209 124.9 29.998 124.942 30.0541C124.985 30.0962 125.048 30.1172 125.133 30.1172H127.83C127.971 30.1172 128.063 30.0471 128.106 29.9068L128.722 27.845C128.75 27.7889 128.785 27.7609 128.828 27.7609H134.051C134.093 27.7609 134.129 27.7889 134.157 27.845L134.794 29.9068ZM129.571 25.4676C129.5 25.4676 129.472 25.4255 129.486 25.3414L131.354 19.0928C131.369 19.0508 131.39 19.0297 131.418 19.0297C131.446 19.0157 131.468 19.0367 131.482 19.0928L133.393 25.3414C133.421 25.4255 133.393 25.4676 133.308 25.4676H129.571Z" fill="#33415B"/>
<path d="M46.7064 42.39C46.169 42.39 45.697 42.2872 45.2905 42.0815C44.884 41.8689 44.5705 41.5741 44.35 41.197C44.1296 40.8199 44.0193 40.3846 44.0193 39.8909V37.5152C44.0193 37.0216 44.1296 36.5862 44.35 36.2091C44.5705 35.832 44.884 35.5406 45.2905 35.3349C45.697 35.1292 46.169 35.0264 46.7064 35.0264C47.2369 35.0264 47.702 35.1258 48.1016 35.3246C48.5081 35.5166 48.8216 35.7943 49.042 36.1577C49.2694 36.5142 49.3831 36.929 49.3831 37.4021C49.3831 37.4638 49.3417 37.5015 49.2591 37.5152L48.0499 37.5872H48.0292C47.9603 37.5872 47.9259 37.5495 47.9259 37.4741C47.9259 37.1107 47.8122 36.8193 47.5848 36.5999C47.3644 36.3805 47.0715 36.2708 46.7064 36.2708C46.3343 36.2708 46.0346 36.3805 45.8072 36.5999C45.5868 36.8193 45.4765 37.1107 45.4765 37.4741V39.9526C45.4765 40.3091 45.5868 40.5971 45.8072 40.8165C46.0346 41.0359 46.3343 41.1456 46.7064 41.1456C47.0715 41.1456 47.3644 41.0359 47.5848 40.8165C47.8122 40.5971 47.9259 40.3091 47.9259 39.9526C47.9259 39.8772 47.9672 39.8395 48.0499 39.8395L49.2591 39.8909C49.2935 39.8909 49.3211 39.9012 49.3417 39.9218C49.3693 39.9423 49.3831 39.9663 49.3831 39.9938C49.3831 40.4668 49.2694 40.8851 49.042 41.2484C48.8216 41.6118 48.5081 41.8929 48.1016 42.0918C47.702 42.2906 47.2369 42.39 46.7064 42.39Z" fill="#33415B"/>
<path fill-rule="evenodd" clip-rule="evenodd" d="M54.8892 42.3077C54.8203 42.3077 54.7755 42.2735 54.7548 42.2049L54.4448 41.197C54.431 41.1696 54.4138 41.1559 54.3931 41.1559H51.8508C51.8301 41.1559 51.8129 41.1696 51.7991 41.197L51.4994 42.2049C51.4787 42.2735 51.4339 42.3077 51.365 42.3077H50.0525C50.0112 42.3077 49.9802 42.2975 49.9595 42.2769C49.9388 42.2495 49.9354 42.2118 49.9492 42.1638L52.1815 35.2115C52.2021 35.143 52.2469 35.1087 52.3158 35.1087H53.9384C54.0073 35.1087 54.0521 35.143 54.0727 35.2115L56.3051 42.1638C56.3119 42.1775 56.3154 42.1946 56.3154 42.2152C56.3154 42.2769 56.2775 42.3077 56.2017 42.3077H54.8892ZM52.1711 39.9732C52.1643 40.0143 52.178 40.0349 52.2125 40.0349H54.0314C54.0727 40.0349 54.0865 40.0143 54.0727 39.9732L53.1426 36.9187C53.1357 36.8913 53.1254 36.881 53.1116 36.8879C53.0978 36.8879 53.0875 36.8982 53.0806 36.9187L52.1711 39.9732Z" fill="#33415B"/>
<path fill-rule="evenodd" clip-rule="evenodd" d="M61.4094 35.3761C61.0649 35.1909 60.6653 35.0984 60.2106 35.0984H57.2961C57.2617 35.0984 57.2307 35.1121 57.2031 35.1395C57.1825 35.1601 57.1721 35.1875 57.1721 35.2218V42.1843C57.1721 42.2186 57.1825 42.2495 57.2031 42.2769C57.2307 42.2975 57.2617 42.3077 57.2961 42.3077H58.5053C58.5398 42.3077 58.5673 42.2975 58.588 42.2769C58.6156 42.2495 58.6293 42.2186 58.6293 42.1843V39.5618C58.6293 39.5275 58.6466 39.5104 58.681 39.5104H60.1486C60.6102 39.5104 61.0167 39.4213 61.3681 39.243C61.7263 39.0579 62.0019 38.8008 62.1948 38.4717C62.3946 38.1426 62.4945 37.762 62.4945 37.3301C62.4945 36.8913 62.3981 36.5039 62.2052 36.168C62.0191 35.8252 61.7539 35.5612 61.4094 35.3761ZM60.7583 38.0809C60.5654 38.2591 60.3105 38.3483 59.9935 38.3483H58.681C58.6466 38.3483 58.6293 38.3311 58.6293 38.2968V36.4045C58.6293 36.3702 58.6466 36.3531 58.681 36.3531H59.9935C60.3105 36.3531 60.5654 36.4456 60.7583 36.6308C60.9512 36.8159 61.0477 37.0593 61.0477 37.361C61.0477 37.6558 60.9512 37.8957 60.7583 38.0809Z" fill="#33415B"/>
<path d="M63.5144 42.3077C63.4799 42.3077 63.4489 42.2975 63.4214 42.2769C63.4007 42.2495 63.3904 42.2186 63.3904 42.1843V35.2321C63.3904 35.1978 63.4007 35.1704 63.4214 35.1498C63.4489 35.1224 63.4799 35.1087 63.5144 35.1087H64.7236C64.758 35.1087 64.7856 35.1224 64.8062 35.1498C64.8338 35.1704 64.8476 35.1978 64.8476 35.2321V42.1843C64.8476 42.2186 64.8338 42.2495 64.8062 42.2769C64.7856 42.2975 64.758 42.3077 64.7236 42.3077H63.5144Z" fill="#33415B"/>
<path d="M71.1796 35.1498C71.159 35.1224 71.1314 35.1087 71.097 35.1087H65.8882C65.8538 35.1087 65.8228 35.1224 65.7952 35.1498C65.7746 35.1704 65.7642 35.1978 65.7642 35.2321V36.24C65.7642 36.2742 65.7746 36.3051 65.7952 36.3325C65.8228 36.3531 65.8538 36.3634 65.8882 36.3634H67.6865C67.7209 36.3634 67.7382 36.3805 67.7382 36.4148V42.1843C67.7382 42.2186 67.7485 42.2495 67.7692 42.2769C67.7967 42.2975 67.8277 42.3077 67.8622 42.3077H69.0714C69.1058 42.3077 69.1334 42.2975 69.154 42.2769C69.1816 42.2495 69.1954 42.2186 69.1954 42.1843V36.4148C69.1954 36.3805 69.2126 36.3634 69.247 36.3634H71.097C71.1314 36.3634 71.159 36.3531 71.1796 36.3325C71.2072 36.3051 71.221 36.2742 71.221 36.24V35.2321C71.221 35.1978 71.2072 35.1704 71.1796 35.1498Z" fill="#33415B"/>
<path fill-rule="evenodd" clip-rule="evenodd" d="M76.0836 42.3077C76.0147 42.3077 75.9699 42.2735 75.9492 42.2049L75.6392 41.197C75.6254 41.1696 75.6082 41.1559 75.5875 41.1559H73.0452C73.0245 41.1559 73.0073 41.1696 72.9935 41.197L72.6938 42.2049C72.6731 42.2735 72.6283 42.3077 72.5594 42.3077H71.2469C71.2056 42.3077 71.1746 42.2975 71.1539 42.2769C71.1332 42.2495 71.1298 42.2118 71.1436 42.1638L73.3759 35.2115C73.3965 35.143 73.4413 35.1087 73.5102 35.1087H75.1328C75.2017 35.1087 75.2465 35.143 75.2671 35.2115L77.4995 42.1638C77.5064 42.1775 77.5098 42.1946 77.5098 42.2152C77.5098 42.2769 77.4719 42.3077 77.3961 42.3077H76.0836ZM73.3655 39.9732C73.3586 40.0143 73.3724 40.0349 73.4069 40.0349H75.2258C75.2671 40.0349 75.2809 40.0143 75.2671 39.9732L74.337 36.9187C74.3301 36.8913 74.3198 36.881 74.306 36.8879C74.2922 36.8879 74.2819 36.8982 74.275 36.9187L73.3655 39.9732Z" fill="#33415B"/>
<path d="M78.4492 42.2769C78.4768 42.2975 78.5078 42.3077 78.5422 42.3077H83.3066C83.341 42.3077 83.3686 42.2975 83.3892 42.2769C83.4168 42.2495 83.4306 42.2186 83.4306 42.1843V41.1867C83.4306 41.1525 83.4168 41.125 83.3892 41.1045C83.3686 41.077 83.341 41.0633 83.3066 41.0633H79.9271C79.8926 41.0633 79.8754 41.0462 79.8754 41.0119V35.2321C79.8754 35.1978 79.8616 35.1704 79.8341 35.1498C79.8134 35.1224 79.7858 35.1087 79.7514 35.1087H78.5422C78.5078 35.1087 78.4768 35.1224 78.4492 35.1498C78.4285 35.1704 78.4182 35.1978 78.4182 35.2321V42.1843C78.4182 42.2186 78.4285 42.2495 78.4492 42.2769Z" fill="#33415B"/>
<path d="M4.22362 42.3899H0L12.2692 21.0293L24.5384 42.3899H20.3106L18.1999 38.7138H18.202L12.2692 28.3836H12.2671L4.22362 42.3899Z" fill="#33415B"/>
</svg>
