<svg width="160" height="49" viewBox="0 0 160 49" fill="none" xmlns="http://www.w3.org/2000/svg">
<path fill-rule="evenodd" clip-rule="evenodd" d="M25.8839 40.39V31.3937H22.0162V40.39H25.8839ZM20.8261 40.39V31.3937H16.9584V40.39H20.8261Z" fill="#33415B"/>
<path fill-rule="evenodd" clip-rule="evenodd" d="M21.0376 8.39001L0 29.5945L6.31126 35.9558L21.0376 21.1126L35.7639 35.9558L42.0751 29.5945L21.0376 8.39001ZM21.0376 13.9032L2.73488 32.351L3.57638 33.1992L21.0376 15.5995L38.4988 33.1992L39.3403 32.351L21.0376 13.9032Z" fill="#33415B"/>
<path fill-rule="evenodd" clip-rule="evenodd" d="M68.5455 34.3484L68.5487 34.3505L68.552 34.3525C69.7166 35.0882 71.0735 35.4445 72.6002 35.4445C74.1438 35.4445 75.5033 35.089 76.6524 34.35L76.6549 34.3484C77.8044 33.6009 78.6906 32.5929 79.3061 31.3336C79.9182 30.0811 80.2206 28.7067 80.2206 27.2212C80.2206 25.7183 79.9191 24.3425 79.3051 23.1067C78.6899 21.8488 77.8037 20.8505 76.6537 20.1227C75.5046 19.3635 74.1446 18.9979 72.6002 18.9979C71.0718 18.9979 69.7136 19.3649 68.5487 20.1214C67.3976 20.8493 66.5108 21.8482 65.8952 23.1069C65.2812 24.3427 64.9797 25.7184 64.9797 27.2212C64.9797 28.7067 65.2821 30.0811 65.8943 31.3336C66.5097 32.5929 67.396 33.6009 68.5455 34.3484ZM74.9371 31.5466L74.9342 31.5486L74.9312 31.5508C74.3309 31.9781 73.5655 32.2102 72.6002 32.2102C71.6567 32.2102 70.8873 31.9795 70.2632 31.5466C69.6183 31.0993 69.1325 30.5095 68.7998 29.7663C68.4593 28.9861 68.2868 28.1402 68.2868 27.2212C68.2868 26.2796 68.4604 25.4353 68.7986 24.6786C69.1314 23.9342 69.6175 23.3436 70.2632 22.8957C70.8873 22.4629 71.6567 22.2322 72.6002 22.2322C73.5655 22.2322 74.3309 22.4642 74.9312 22.8916L74.9342 22.8937L74.9371 22.8957C75.5828 23.3436 76.0689 23.9342 76.4017 24.6786C76.74 25.4353 76.9135 26.2796 76.9135 27.2212C76.9135 28.1402 76.7411 28.986 76.4006 29.7662C76.0678 30.5095 75.5821 31.0993 74.9371 31.5466Z" fill="#33415B"/>
<path d="M84.9451 34.6621L84.9495 34.6646L84.954 34.667C85.9061 35.1838 86.9161 35.4445 87.9767 35.4445C89.2073 35.4445 90.2722 35.1822 91.1301 34.61C91.4727 34.3815 91.7934 34.1307 92.0917 33.8578V35.2085H95.3987V19.2338H92.0917V28.3419C92.0917 29.1273 91.9167 29.7892 91.5845 30.3488L91.5812 30.3545L91.5779 30.3602C91.252 30.9367 90.8157 31.3913 90.2625 31.7312C89.7163 32.0474 89.1005 32.2102 88.4019 32.2102C87.3995 32.2102 86.6028 31.8675 85.9667 31.1918C85.3528 30.5009 85.024 29.5807 85.024 28.3714V19.2338H81.7169V28.4303C81.7169 29.906 81.9967 31.1969 82.5884 32.2742L82.592 32.2807L82.5957 32.2871C83.1939 33.3173 83.9772 34.1148 84.9451 34.6621Z" fill="#33415B"/>
<path d="M98.3677 14.4562V35.2085H111.908V31.8563H101.675V14.4562H98.3677Z" fill="#33415B"/>
<path fill-rule="evenodd" clip-rule="evenodd" d="M115.346 34.3429L115.351 34.3465L115.357 34.35C116.501 35.0859 117.821 35.4445 119.296 35.4445C120.542 35.4445 121.645 35.1936 122.581 34.6631C123.017 34.4205 123.417 34.1386 123.779 33.8176V35.2085H127.086V19.2338H123.779V20.6313C123.417 20.3062 123.018 20.0221 122.581 19.7793C121.645 19.2488 120.542 18.9979 119.296 18.9979C117.818 18.9979 116.496 19.3678 115.351 20.1255C114.238 20.8549 113.374 21.8532 112.761 23.1068C112.147 24.3426 111.845 25.7183 111.845 27.2212C111.845 28.7067 112.148 30.0811 112.76 31.3336C113.372 32.5872 114.236 33.5942 115.346 34.3429ZM121.916 31.5466L121.913 31.5486L121.91 31.5508C121.31 31.9781 120.544 32.2102 119.579 32.2102C118.636 32.2102 117.854 31.9796 117.208 31.5427C116.543 31.0928 116.039 30.5003 115.689 29.7557C115.332 28.9778 115.152 28.1357 115.152 27.2212C115.152 26.284 115.334 25.4434 115.688 24.6891C116.038 23.9433 116.542 23.35 117.208 22.8997C117.854 22.4627 118.636 22.2322 119.579 22.2322C120.544 22.2322 121.31 22.4642 121.91 22.8916L121.913 22.8937L121.916 22.8957C122.562 23.3436 123.048 23.9342 123.381 24.6786C123.719 25.4353 123.892 26.2796 123.892 27.2212C123.892 28.14 123.72 28.9858 123.38 29.7659C123.047 30.5093 122.561 31.0992 121.916 31.5466Z" fill="#33415B"/>
<path d="M132.889 19.2338H129.582V35.2085H132.889V26.1005C132.889 25.3107 133.057 24.6454 133.373 24.0845C133.72 23.4848 134.165 23.0327 134.713 22.7144C135.261 22.396 135.878 22.2322 136.579 22.2322C137.602 22.2322 138.394 22.5849 139.009 23.2745L139.012 23.2772L139.014 23.2799C139.626 23.9494 139.957 24.8579 139.957 26.071V35.2085H143.264V26.012C143.264 24.5365 142.975 23.252 142.361 22.1912C141.782 21.1406 141.007 20.3387 140.034 19.8087C139.097 19.2685 138.084 18.9979 137.004 18.9979C135.774 18.9979 134.709 19.2602 133.851 19.8323C133.508 20.0609 133.188 20.3116 132.889 20.5845V19.2338Z" fill="#33415B"/>
<path fill-rule="evenodd" clip-rule="evenodd" d="M148.26 34.3429L148.265 34.3465L148.271 34.35C149.415 35.0859 150.735 35.4445 152.209 35.4445C153.456 35.4445 154.558 35.1936 155.494 34.6632C155.931 34.4206 156.331 34.1387 156.693 33.8176V35.2085H160V13.3355H156.693V20.6313C156.331 20.3061 155.931 20.022 155.494 19.7792C154.558 19.2488 153.456 18.9979 152.209 18.9979C150.732 18.9979 149.41 19.3677 148.265 20.1252C147.153 20.8545 146.288 21.8527 145.675 23.1062C145.061 24.3422 144.759 25.7181 144.759 27.2212C144.759 28.7067 145.062 30.0811 145.674 31.3336C146.286 32.5872 147.15 33.5942 148.26 34.3429ZM154.83 31.5466L154.827 31.5486L154.824 31.5508C154.224 31.9781 153.458 32.2102 152.493 32.2102C151.55 32.2102 150.768 31.9796 150.122 31.5427C149.457 31.0929 148.953 30.5005 148.603 29.7561C148.246 28.9781 148.066 28.1358 148.066 27.2212C148.066 26.284 148.247 25.4434 148.602 24.6891C148.952 23.9433 149.456 23.35 150.122 22.8997C150.768 22.4627 151.55 22.2322 152.493 22.2322C153.458 22.2322 154.224 22.4642 154.824 22.8916L154.827 22.8937L154.83 22.8957C155.476 23.3436 155.962 23.9342 156.294 24.6786C156.633 25.4353 156.806 26.2796 156.806 27.2212C156.806 28.1402 156.634 28.9861 156.293 29.7663C155.961 30.5095 155.475 31.0993 154.83 31.5466Z" fill="#33415B"/>
<path d="M48.3721 17.1902L50.7568 14.7282L57.9108 22.1141L65.0649 14.7283L67.4495 17.1902L59.6698 25.2221V35.4446H56.2973V25.3723L48.3721 17.1902Z" fill="#33415B"/>
</svg>
