<svg width="147" height="49" viewBox="0 0 147 49" fill="none" xmlns="http://www.w3.org/2000/svg">
<g clip-path="url(#clip0_130_1542)">
<path d="M45.7811 36.2144L55.7525 11.2906H57.6687L67.6045 36.2144H65.1915L62.2463 28.7016H51.1394L48.1941 36.2144H45.7811ZM51.8846 26.6009H61.4656L56.7106 14.3883L51.8846 26.6009Z" fill="#33415B"/>
<path d="M75.4163 36.606C73.9006 36.606 72.765 36.2856 72.0097 35.6447C71.2544 35.0038 70.8742 33.8542 70.8742 32.191V21.1533H67.1837V19.1594H70.8742V12.8929H73.0033V19.1594H78.1841V21.1533H73.0033V31.8349C73.0033 32.9031 73.2263 33.6355 73.6775 34.0221C74.1287 34.4137 74.8232 34.6121 75.7711 34.6121C76.1716 34.6121 76.5974 34.5511 77.0486 34.4341C77.4998 34.3171 77.8749 34.1848 78.1841 34.0424V36.1431C77.8546 36.2601 77.4288 36.3669 76.9067 36.4636C76.3845 36.5602 75.8877 36.606 75.4163 36.606Z" fill="#33415B"/>
<path d="M88.7942 36.606C87.2785 36.606 86.143 36.2856 85.3876 35.6447C84.6323 35.0038 84.2521 33.8542 84.2521 32.191V21.1533H80.5616V19.1594H84.2521V12.8929H86.3812V19.1594H91.5621V21.1533H86.3812V31.8349C86.3812 32.9031 86.6043 33.6355 87.0554 34.0221C87.5066 34.4137 88.2011 34.6121 89.1491 34.6121C89.5495 34.6121 89.9754 34.5511 90.4265 34.4341C90.8777 34.3171 91.2528 34.1848 91.5621 34.0424V36.1431C91.2326 36.2601 90.8067 36.3669 90.2846 36.4636C89.7625 36.5602 89.2657 36.606 88.7942 36.606Z" fill="#33415B"/>
<path d="M101.285 36.606C99.4854 36.606 98.0305 36.0262 96.9204 34.8614C95.8102 33.6966 95.2526 32.0384 95.2526 29.8766V19.1594H97.3817V29.5918C97.3817 31.2551 97.7771 32.5012 98.573 33.3303C99.3638 34.1594 100.388 34.5765 101.645 34.5765C103.09 34.5765 104.261 34.1238 105.158 33.2235C106.055 32.3232 106.506 31.2194 106.506 29.9122V19.1594H108.671V36.1788H106.648L106.577 33.7932C106.081 34.5765 105.371 35.2428 104.448 35.7871C103.526 36.3313 102.471 36.606 101.29 36.606H101.285Z" fill="#33415B"/>
<path d="M113.953 36.2144V19.1594H115.976L116.047 21.5806C116.589 20.7719 117.319 20.0954 118.232 19.5511C119.144 19.0068 120.178 18.7322 121.339 18.7322C123.159 18.7322 124.629 19.312 125.739 20.4768C126.85 21.6416 127.407 23.2998 127.407 25.4616V36.2144H125.278V25.782C125.278 24.1187 124.883 22.8726 124.087 22.0435C123.296 21.2144 122.272 20.7973 121.015 20.7973C120.067 20.7973 119.22 21.0058 118.48 21.4178C117.735 21.8349 117.157 22.3944 116.741 23.0913C116.326 23.7932 116.123 24.5714 116.123 25.4209V36.2093H113.958L113.953 36.2144Z" fill="#33415B"/>
<path d="M139.65 36.606C138.114 36.606 136.745 36.2449 135.554 35.5175C134.357 34.7952 133.425 33.7627 132.75 32.4199C132.076 31.077 131.736 29.4951 131.736 27.664C131.736 25.8329 132.076 24.3273 132.75 22.9997C133.425 21.6722 134.352 20.6294 135.538 19.8868C136.72 19.1391 138.068 18.7627 139.584 18.7627C141.099 18.7627 142.428 19.1493 143.507 19.9224C144.582 20.6956 145.408 21.6925 145.976 22.9133C146.544 24.134 146.828 25.426 146.828 26.779V27.4911H133.911C133.866 29.6274 134.367 31.3568 135.422 32.6742C136.476 33.9916 137.901 34.6528 139.7 34.6528C141.023 34.6528 142.139 34.312 143.036 33.6355C143.933 32.959 144.668 31.957 145.236 30.6243L147.01 31.6569C145.495 34.958 143.046 36.606 139.665 36.606H139.65ZM134.043 25.6396H144.689C144.572 24.7139 144.278 23.8695 143.817 23.1116C143.355 22.3537 142.762 21.7485 142.042 21.2958C141.323 20.8431 140.501 20.6193 139.574 20.6193C138.129 20.6193 136.917 21.0669 135.934 21.957C134.95 22.8471 134.317 24.0781 134.033 25.6447L134.043 25.6396Z" fill="#33415B"/>
<path d="M19.9529 21.901L17.1243 27.4859L10.0728 41.3974C9.84472 41.8451 9.56591 42.2469 9.24654 42.5979L9.21612 42.6284C9.1705 42.6741 9.12488 42.725 9.07925 42.7708C8.98293 42.8725 8.87648 42.9641 8.77509 43.0505C8.74975 43.0709 8.7244 43.0963 8.69905 43.1116C8.67371 43.1319 8.64836 43.1523 8.62301 43.1726C8.59767 43.193 8.56725 43.2184 8.5419 43.2387C8.50642 43.2642 8.476 43.2896 8.44052 43.315C8.39489 43.3506 8.3442 43.3812 8.29858 43.4168C8.2783 43.432 8.25802 43.4473 8.23775 43.4575C8.18198 43.4931 8.12622 43.5287 8.06539 43.5643C8.0147 43.5948 7.96907 43.6202 7.91838 43.6508C7.86769 43.6813 7.81699 43.7067 7.7663 43.7321C7.65984 43.783 7.54832 43.839 7.44186 43.8847C7.26951 43.961 7.09208 44.0271 6.90958 44.0831C6.8741 44.0933 6.83861 44.1034 6.80313 44.1136C6.77271 44.1238 6.74737 44.1289 6.71695 44.134C6.69667 44.1391 6.67133 44.1441 6.65105 44.1492C6.63077 44.1543 6.61049 44.1594 6.58515 44.1645C6.5598 44.1696 6.53446 44.1747 6.50911 44.1797C6.49897 44.1797 6.4939 44.1848 6.47869 44.1848C6.45335 44.1899 6.43307 44.195 6.40772 44.2001C6.33675 44.2154 6.26578 44.2306 6.19481 44.2408C6.15933 44.2459 6.12384 44.251 6.08836 44.256C6.05287 44.2611 6.02245 44.2662 5.98697 44.2713C5.95148 44.2713 5.92107 44.2764 5.88558 44.2815C5.87544 44.2815 5.87037 44.2866 5.86531 44.2866C5.86024 44.2866 5.85517 44.2866 5.8501 44.2866C5.76899 44.2967 5.68281 44.3018 5.6017 44.3069C5.51552 44.3069 5.42428 44.312 5.3381 44.312H5.28233C5.28233 44.312 5.24685 44.312 5.23164 44.312H5.21136C5.14546 44.312 5.07956 44.3069 5.01366 44.3018C4.99845 44.3018 4.97818 44.3018 4.96297 44.3018C4.92241 44.3018 4.88186 44.2967 4.83623 44.2916C4.80075 44.2866 4.76526 44.2815 4.72978 44.2764C4.68416 44.2764 4.63853 44.2662 4.59291 44.2611C4.55235 44.256 4.5118 44.251 4.47124 44.2459C4.43069 44.2408 4.39014 44.2357 4.35465 44.2255C4.32423 44.2255 4.29382 44.2153 4.2634 44.2103C4.16202 44.1899 4.06063 44.1645 3.95924 44.1391C3.90855 44.1238 3.85786 44.1085 3.80716 44.0933C3.80716 44.0933 3.80716 44.0933 3.80209 44.0933C3.7514 44.078 3.69564 44.0577 3.64495 44.0424C3.59932 44.0271 3.5537 44.0119 3.50807 43.9966C3.44724 43.9763 3.38134 43.9509 3.32051 43.9203C3.26475 43.9 3.20392 43.8695 3.14308 43.844C3.08225 43.8135 3.01635 43.7881 2.95552 43.7576C2.94031 43.7525 2.9251 43.7474 2.91496 43.7372C2.87441 43.7169 2.83386 43.6965 2.7933 43.6711C2.77302 43.6609 2.74768 43.6508 2.7274 43.6355C2.68178 43.6101 2.63108 43.5795 2.58546 43.549C2.5297 43.5185 2.47393 43.4829 2.42324 43.4473C2.40803 43.4371 2.38776 43.4269 2.37255 43.4117C2.33199 43.3863 2.29651 43.3608 2.25595 43.3354C2.2154 43.3049 2.17991 43.2794 2.14443 43.2489C2.13429 43.2438 2.12415 43.2337 2.11401 43.2286C2.07853 43.2031 2.04811 43.1777 2.0177 43.1472C2.00249 43.137 1.98221 43.1218 1.967 43.1065C1.95179 43.0912 1.93152 43.076 1.91631 43.0658C1.88589 43.0404 1.85548 43.0149 1.82506 42.9895C1.81492 42.9793 1.79972 42.9692 1.78958 42.9539C1.77944 42.9437 1.7693 42.9336 1.75409 42.9183C1.70847 42.8776 1.66284 42.8318 1.61722 42.7911C1.5716 42.7454 1.52597 42.7047 1.48542 42.6589C1.44486 42.6131 1.39924 42.5673 1.35868 42.5216C1.31813 42.4758 1.27758 42.43 1.23702 42.3791C1.20154 42.3334 1.16605 42.2876 1.13057 42.2418C1.11536 42.2265 1.10015 42.2062 1.08494 42.1858C1.06973 42.1655 1.05453 42.1452 1.04439 42.1299C1.02918 42.1045 1.0089 42.079 0.988625 42.0536C0.988625 42.0485 0.983556 42.0434 0.978486 42.0383C0.968348 42.0231 0.958209 42.0078 0.94807 41.9926C0.932862 41.9722 0.917654 41.9519 0.907516 41.9315C0.856823 41.8552 0.80613 41.7789 0.760506 41.6975C0.73009 41.6518 0.704743 41.6009 0.679397 41.55C0.532387 41.2906 0.410723 41.016 0.314406 40.7362C0.28399 40.6548 0.258644 40.5734 0.233297 40.487C0.223158 40.4564 0.21302 40.4208 0.202881 40.3903C0.192742 40.3649 0.187673 40.3344 0.182604 40.3089C0.162327 40.2276 0.142049 40.1411 0.121772 40.0597C0.121772 40.0546 0.121772 40.0444 0.116703 40.0394C0.111633 39.9987 0.101495 39.9631 0.0964255 39.9275C0.0913562 39.902 0.0862868 39.8766 0.0862868 39.8512C0.0761482 39.7952 0.0710789 39.7443 0.0609403 39.6884C0.0558709 39.6477 0.0508016 39.6019 0.0457323 39.5612C0.0457323 39.546 0.040663 39.5256 0.040663 39.5053C0.0355937 39.4595 0.0305244 39.4086 0.0305244 39.3629C0.0305244 39.3578 0.0305244 39.3476 0.0305244 39.3425C0.0305244 39.3374 0.0305244 39.3273 0.0305244 39.3222C0.0305244 39.3171 0.0305244 39.312 0.0305244 39.3069C0.0254551 39.256 0.0203857 39.2001 0.0203857 39.1492C0.0203857 39.0882 0.0203857 39.0272 0.0203857 38.9661C0.0203857 38.9152 0.0203857 38.8593 0.0203857 38.8084C0.0203857 38.7728 0.0203857 38.7423 0.0254551 38.7067C0.0254551 38.6711 0.0254551 38.6304 0.0305244 38.5948C0.0305244 38.5541 0.0355937 38.5185 0.040663 38.4829C0.040663 38.4473 0.0457323 38.4168 0.0508016 38.3863C0.0508016 38.3456 0.0558709 38.3049 0.0660096 38.2693C0.0710789 38.2286 0.0761482 38.193 0.0862868 38.1523C0.0862868 38.1319 0.0913562 38.1065 0.0964255 38.0811C0.101495 38.0556 0.106564 38.0353 0.111633 38.0099C0.111633 38.0048 0.111633 37.9997 0.111633 37.9946V37.9844C0.147119 37.8013 0.187673 37.6233 0.243436 37.4453C0.273851 37.3435 0.309337 37.2469 0.344822 37.1452C0.365099 37.0943 0.385376 37.0434 0.400584 36.9926C0.420862 36.9468 0.441139 36.8959 0.461416 36.8451C0.481693 36.7993 0.501971 36.7535 0.522248 36.7077C0.547594 36.6569 0.572941 36.6009 0.598288 36.55L14.8735 8.33539C14.8735 8.33539 14.8735 8.34047 14.8735 8.34556C14.473 9.55105 14.4933 10.9041 15.0306 12.1604L15.1269 12.3842L19.9529 21.8959V21.901Z" fill="#33415B"/>
<path d="M0.0102607 39.312C0.0102607 39.312 0.0102607 39.3222 0.0102607 39.3273C0.0102607 39.2713 0.00519139 39.2103 0.00012207 39.1492C0.00012207 39.2001 0.00519139 39.256 0.0102607 39.3069V39.312Z" fill="#33415B"/>
<path d="M0.0103183 39.3679C0.0103183 39.4188 0.0153877 39.4646 0.020457 39.5104C0.0153877 39.4544 0.0103183 39.4035 0.00524902 39.3476C0.00524902 39.3527 0.00524902 39.3629 0.00524902 39.3679H0.0103183Z" fill="#33415B"/>
<path d="M0.0406494 38.2642C0.0457187 38.2031 0.0558574 38.137 0.0710653 38.076C0.0710653 38.0963 0.065996 38.1218 0.0609267 38.1472C0.050788 38.1879 0.0457187 38.2286 0.0406494 38.2642Z" fill="#33415B"/>
<path d="M0.0710449 38.076C0.0761142 38.0455 0.0811836 38.02 0.0862529 37.9895C0.0862529 37.9946 0.0862529 37.9997 0.0862529 38.0048C0.0862529 38.0251 0.0761142 38.0505 0.0710449 38.076Z" fill="#33415B"/>
<path d="M1.12045 42.2469C1.15594 42.2927 1.18635 42.3385 1.22691 42.3843C1.17622 42.3232 1.12552 42.2571 1.07483 42.191C1.09004 42.2062 1.10524 42.2266 1.12045 42.2469Z" fill="#33415B"/>
<path d="M1.73892 42.9234C1.73892 42.9234 1.7592 42.9489 1.77441 42.959C1.71358 42.9082 1.65274 42.8522 1.60205 42.7963C1.64767 42.842 1.6933 42.8827 1.73892 42.9234Z" fill="#33415B"/>
<path d="M2.00248 43.1523C2.03289 43.1777 2.06838 43.2032 2.09879 43.2337C2.0481 43.1981 1.99741 43.1574 1.95178 43.1167C1.96699 43.1269 1.98727 43.1421 2.00248 43.1574V43.1523Z" fill="#33415B"/>
<path d="M2.95043 43.7576C3.01126 43.7881 3.07716 43.8186 3.13799 43.8441C3.06195 43.8136 2.98591 43.778 2.90987 43.7373C2.86932 43.7169 2.82876 43.6966 2.78821 43.6711C2.82876 43.6915 2.86932 43.7169 2.90987 43.7373C2.92001 43.7424 2.93522 43.7474 2.95043 43.7576Z" fill="#33415B"/>
<path d="M5.83485 44.2917C5.83485 44.2917 5.84499 44.2917 5.85006 44.2917C5.67264 44.312 5.49521 44.3222 5.31778 44.3222C5.30258 44.3222 5.2823 44.3222 5.26709 44.3222H5.32285C5.40903 44.3222 5.50028 44.3222 5.58646 44.3171C5.66757 44.3171 5.75374 44.3069 5.83485 44.2968V44.2917Z" fill="#33415B"/>
<path d="M5.87544 44.2866C5.91093 44.2866 5.94135 44.2815 5.97683 44.2764C5.93628 44.2815 5.89572 44.2866 5.8501 44.2917C5.85517 44.2917 5.86531 44.2917 5.87037 44.2866H5.87544Z" fill="#33415B"/>
<path d="M6.49898 44.1849C6.49898 44.1849 6.54967 44.1747 6.57502 44.1696C6.53953 44.1798 6.50912 44.1849 6.47363 44.19C6.48377 44.19 6.49391 44.19 6.50405 44.1849H6.49898Z" fill="#33415B"/>
<path d="M8.61285 43.1727C8.63819 43.1523 8.66354 43.132 8.68889 43.1116C8.63819 43.1574 8.58243 43.1981 8.53174 43.2388C8.56215 43.2184 8.5875 43.193 8.61285 43.1727Z" fill="#33415B"/>
<path d="M9.24151 42.5928C9.18574 42.6538 9.13505 42.7098 9.07422 42.7657C9.11984 42.7199 9.16547 42.6742 9.21109 42.6233L9.24151 42.5928Z" fill="#33415B"/>
<path d="M25.1591 8.59991L24.7637 7.82168C23.5673 5.18689 20.4801 3.98648 17.8137 5.14111C17.1851 5.41578 16.6325 5.79218 16.1763 6.24996C17.6362 4.73419 19.9124 4.17468 21.9806 4.99869C23.618 5.65484 24.7485 7.02819 25.1642 8.61517V8.605L25.1591 8.59991Z" fill="#33415B"/>
<path d="M38.8564 35.2581L38.2937 34.6731C34.1774 30.4056 28.8647 27.7911 23.1212 27.1655L20.3483 21.5907L15.6186 12.079L15.5223 11.8552C14.9951 10.5989 14.9698 9.24587 15.3652 8.04038C15.3652 8.04038 15.3652 8.03529 15.3652 8.0302L15.5629 7.63346C15.8214 6.98748 16.1864 6.42288 16.6325 5.94984C16.6325 5.94984 16.6325 5.94475 16.6376 5.93966C17.0887 5.48188 17.6261 5.10548 18.2445 4.83081C20.8552 3.67618 23.8816 4.87659 25.0526 7.51138L25.4379 8.28453L25.443 8.29979L38.8462 35.253L38.8564 35.2581Z" fill="#33415B"/>
<path d="M15.3752 8.0302C15.6338 7.25197 16.0647 6.53986 16.6426 5.94983C16.1965 6.42287 15.8315 6.98747 15.5729 7.63345L15.3752 8.0302Z" fill="#33415B"/>
<path d="M39.7993 39.0424V39.0526C39.7993 39.1696 39.7993 39.2917 39.7891 39.4036C39.7891 39.4036 39.7891 39.4086 39.7891 39.4137C39.784 39.5307 39.7688 39.6528 39.7536 39.7647C39.7384 39.8868 39.7181 40.0038 39.6928 40.1207C39.6675 40.2377 39.6421 40.3598 39.6066 40.4717C39.5863 40.5633 39.5559 40.6599 39.5204 40.7515C39.4799 40.8888 39.4292 41.0211 39.3684 41.1533C39.3329 41.2449 39.2923 41.3364 39.2467 41.4229C39.2264 41.4687 39.2061 41.5094 39.1808 41.55C39.1707 41.5755 39.1605 41.6009 39.1402 41.6263C39.0693 41.7586 38.9983 41.8807 38.9172 42.0078C38.9172 42.018 38.9071 42.0282 38.8969 42.0383C38.8513 42.1045 38.8057 42.1706 38.755 42.2367C38.5522 42.5114 38.3292 42.7657 38.0808 42.9946C37.9591 43.1116 37.8273 43.2184 37.6904 43.3201C37.6296 43.3659 37.5637 43.4117 37.5029 43.4626C37.3609 43.5643 37.2088 43.6609 37.0517 43.7423C36.9909 43.7779 36.93 43.8084 36.8641 43.844C36.6259 43.9661 36.3724 44.0679 36.1189 44.1492C36.0378 44.1747 35.9567 44.2001 35.8705 44.2204C35.7844 44.2408 35.7032 44.2611 35.6171 44.2815C35.5309 44.3018 35.4447 44.3171 35.3585 44.3273C35.2774 44.3425 35.1963 44.3578 35.1152 44.3629C35.0899 44.368 35.0696 44.373 35.0442 44.3679C34.9733 44.373 34.9023 44.3832 34.8263 44.3832C34.7401 44.3832 34.6488 44.3883 34.5627 44.3883C34.4815 44.3883 34.4106 44.3883 34.3345 44.3832C34.3092 44.3832 34.2838 44.3832 34.2636 44.3832C34.2078 44.3781 34.152 44.373 34.0963 44.3679C34.0456 44.3679 33.9949 44.3629 33.9442 44.3578C33.8732 44.3476 33.7972 44.3374 33.7262 44.3222C33.7161 44.3222 33.711 44.3222 33.7059 44.3222C33.6248 44.312 33.5539 44.2917 33.4728 44.2764C33.3663 44.256 33.2649 44.2306 33.1635 44.2001C33.0571 44.1696 32.9557 44.1391 32.8543 44.1035C32.8289 44.0933 32.8036 44.0882 32.7783 44.0729C32.7124 44.0526 32.6465 44.0272 32.5806 43.9966C32.5349 43.9763 32.4842 43.9559 32.4335 43.9356C32.4082 43.9254 32.3879 43.9153 32.3626 43.9C32.2308 43.839 32.099 43.7677 31.9722 43.6965C31.957 43.6914 31.9418 43.6813 31.9317 43.6711C31.8607 43.6253 31.7897 43.5846 31.7137 43.5338C31.5667 43.4371 31.4197 43.3303 31.2828 43.2184C31.2118 43.1625 31.1459 43.1065 31.08 43.0404C31.0141 42.9793 30.9533 42.9183 30.8925 42.8573C30.8925 42.8573 30.8925 42.8573 30.8874 42.8522C30.8266 42.7911 30.7657 42.725 30.7049 42.6589C30.6948 42.6538 30.6948 42.6487 30.6846 42.6436C27.9219 39.8562 24.2669 38.3252 20.3787 38.3252C16.4905 38.3252 12.6176 39.9478 9.82947 42.9081C10.1438 42.5572 10.4175 42.1553 10.6406 41.7077L17.55 27.7962C18.4828 27.6894 19.4257 27.6385 20.3787 27.6385C21.3317 27.6385 22.1986 27.6894 23.0959 27.7861C28.8394 28.4117 34.152 31.0261 38.2683 35.2937L38.831 35.8786L39.2061 36.6314C39.5914 37.4097 39.7739 38.2286 39.7739 39.0475L39.7993 39.0424Z" fill="#33415B"/>
</g>
<defs>
<clipPath id="clip0_130_1542">
<rect width="147" height="48" fill="white" transform="translate(0 0.390015)"/>
</clipPath>
</defs>
</svg>
