<svg xmlns="http://www.w3.org/2000/svg" width="28" height="28" viewBox="0 0 28 28" fill="none">
    <rect x="0.5" y="0.5" width="27" height="27" rx="6.5" fill="white"/>
    <rect x="0.5" y="0.5" width="27" height="27" rx="6.5" stroke="#D2D6E1"/>
    <path d="M13.6 7.6H14.4V20.4H13.6V7.6Z" fill="#6D4FFB"/>
    <path d="M7.6 13.6H20.4V14.4H7.6V13.6Z" fill="#6D4FFB"/>
    <path d="M9.1916 9.75748L9.75726 9.19179L18.8082 18.2427L18.2425 18.8083L9.1916 9.75748Z" fill="#AF9FFF"/>
    <path d="M9.1916 18.2425L18.2425 9.19165L18.8082 9.75734L9.75726 18.8082L9.1916 18.2425Z" fill="#AF9FFF"/>
    <path d="M10.8 14C10.8 14.8487 11.1371 15.6626 11.7373 16.2627C12.3374 16.8629 13.1513 17.2 14 17.2C14.8487 17.2 15.6626 16.8629 16.2627 16.2627C16.8629 15.6626 17.2 14.8487 17.2 14C17.2 13.1513 16.8629 12.3374 16.2627 11.7373C15.6626 11.1371 14.8487 10.8 14 10.8C13.1513 10.8 12.3374 11.1371 11.7373 11.7373C11.1371 12.3374 10.8 13.1513 10.8 14Z"
          fill="#6D4FFB"/>
    <path d="M12.4 7.6C12.4 8.02435 12.5686 8.43131 12.8686 8.73137C13.1687 9.03143 13.5757 9.2 14 9.2C14.4243 9.2 14.8313 9.03143 15.1314 8.73137C15.4314 8.43131 15.6 8.02435 15.6 7.6C15.6 7.17565 15.4314 6.76869 15.1314 6.46863C14.8313 6.16857 14.4243 6 14 6C13.5757 6 13.1687 6.16857 12.8686 6.46863C12.5686 6.76869 12.4 7.17565 12.4 7.6Z"
          fill="#6D4FFB"/>
    <path d="M16.9255 9.47451C16.9255 9.89885 17.0941 10.3058 17.3941 10.6059C17.6942 10.9059 18.1011 11.0745 18.5255 11.0745C18.9498 11.0745 19.3568 10.9059 19.6569 10.6059C19.9569 10.3058 20.1255 9.89885 20.1255 9.47451C20.1255 9.05016 19.9569 8.64319 19.6569 8.34313C19.3568 8.04308 18.9498 7.87451 18.5255 7.87451C18.1011 7.87451 17.6942 8.04308 17.3941 8.34313C17.0941 8.64319 16.9255 9.05016 16.9255 9.47451Z"
          fill="#AF9FFF"/>
    <path d="M18.8 14C18.8 14.4243 18.9686 14.8313 19.2686 15.1314C19.5687 15.4314 19.9757 15.6 20.4 15.6C20.8243 15.6 21.2313 15.4314 21.5314 15.1314C21.8314 14.8313 22 14.4243 22 14C22 13.5757 21.8314 13.1687 21.5314 12.8686C21.2313 12.5686 20.8243 12.4 20.4 12.4C19.9757 12.4 19.5687 12.5686 19.2686 12.8686C18.9686 13.1687 18.8 13.5757 18.8 14Z"
          fill="#6D4FFB"/>
    <path d="M16.9255 18.5255C16.9255 18.9498 17.0941 19.3568 17.3941 19.6569C17.6942 19.9569 18.1011 20.1255 18.5255 20.1255C18.9498 20.1255 19.3568 19.9569 19.6569 19.6569C19.9569 19.3568 20.1255 18.9498 20.1255 18.5255C20.1255 18.1011 19.9569 17.6942 19.6569 17.3941C19.3568 17.0941 18.9498 16.9255 18.5255 16.9255C18.1011 16.9255 17.6942 17.0941 17.3941 17.3941C17.0941 17.6942 16.9255 18.1011 16.9255 18.5255Z"
          fill="#AF9FFF"/>
    <path d="M12.4 20.4C12.4 20.8243 12.5686 21.2313 12.8686 21.5314C13.1687 21.8314 13.5757 22 14 22C14.4243 22 14.8313 21.8314 15.1314 21.5314C15.4314 21.2313 15.6 20.8243 15.6 20.4C15.6 19.9757 15.4314 19.5687 15.1314 19.2686C14.8313 18.9686 14.4243 18.8 14 18.8C13.5757 18.8 13.1687 18.9686 12.8686 19.2686C12.5686 19.5687 12.4 19.9757 12.4 20.4Z"
          fill="#6D4FFB"/>
    <path d="M7.87451 18.5255C7.87451 18.9498 8.04308 19.3568 8.34313 19.6569C8.64319 19.9569 9.05016 20.1255 9.47451 20.1255C9.89885 20.1255 10.3058 19.9569 10.6059 19.6569C10.9059 19.3568 11.0745 18.9498 11.0745 18.5255C11.0745 18.1011 10.9059 17.6942 10.6059 17.3941C10.3058 17.0941 9.89885 16.9255 9.47451 16.9255C9.05016 16.9255 8.64319 17.0941 8.34313 17.3941C8.04308 17.6942 7.87451 18.1011 7.87451 18.5255Z"
          fill="#AF9FFF"/>
    <path d="M6 14C6 14.4243 6.16857 14.8313 6.46863 15.1314C6.76869 15.4314 7.17565 15.6 7.6 15.6C8.02435 15.6 8.43131 15.4314 8.73137 15.1314C9.03143 14.8313 9.2 14.4243 9.2 14C9.2 13.5757 9.03143 13.1687 8.73137 12.8686C8.43131 12.5686 8.02435 12.4 7.6 12.4C7.17565 12.4 6.76869 12.5686 6.46863 12.8686C6.16857 13.1687 6 13.5757 6 14Z"
          fill="#6D4FFB"/>
    <path d="M7.87451 9.47451C7.87451 9.89885 8.04308 10.3058 8.34313 10.6059C8.64319 10.9059 9.05016 11.0745 9.47451 11.0745C9.89885 11.0745 10.3058 10.9059 10.6059 10.6059C10.9059 10.3058 11.0745 9.89885 11.0745 9.47451C11.0745 9.05016 10.9059 8.64319 10.6059 8.34313C10.3058 8.04308 9.89885 7.87451 9.47451 7.87451C9.05016 7.87451 8.64319 8.04308 8.34313 8.34313C8.04308 8.64319 7.87451 9.05016 7.87451 9.47451Z"
          fill="#AF9FFF"/>
</svg>
