<svg xmlns="http://www.w3.org/2000/svg" width="16" height="16" viewBox="0 0 16 16" fill="none">
  <path d="M3.84961 4.15039C3.84961 5.17137 4.25519 6.15053 4.97713 6.87248C5.69908 7.59442 6.67824 8 7.69922 8C8.7202 8 9.69936 7.59442 10.4213 6.87248C11.1432 6.15053 11.5488 5.17137 11.5488 4.15039C11.5488 3.12941 11.1432 2.15025 10.4213 1.42831C9.69936 0.706364 8.7202 0.300781 7.69922 0.300781C6.67824 0.300781 5.69908 0.706364 4.97713 1.42831C4.25519 2.15025 3.84961 3.12941 3.84961 4.15039Z" fill="#1DAFCD"/>
  <path d="M3.84961 11.8496C3.84961 12.8706 4.25519 13.8498 4.97713 14.5717C5.69908 15.2936 6.67824 15.6992 7.69922 15.6992C8.7202 15.6992 9.69936 15.2936 10.4213 14.5717C11.1432 13.8498 11.5488 12.8706 11.5488 11.8496C11.5488 10.8286 11.1432 9.84947 10.4213 9.12752C9.69936 8.40558 8.7202 8 7.69922 8C6.67824 8 5.69908 8.40558 4.97713 9.12752C4.25519 9.84947 3.84961 10.8286 3.84961 11.8496Z" fill="#1DAFCD"/>
  <path d="M7.69922 8C7.69922 9.02098 8.1048 10.0001 8.82674 10.7221C9.54869 11.444 10.5278 11.8496 11.5488 11.8496C12.5698 11.8496 13.549 11.444 14.2709 10.7221C14.9929 10.0001 15.3984 9.02098 15.3984 8C15.3984 6.97902 14.9929 5.99986 14.2709 5.27792C13.549 4.55597 12.5698 4.15039 11.5488 4.15039C10.5278 4.15039 9.54869 4.55597 8.82674 5.27792C8.1048 5.99986 7.69922 6.97902 7.69922 8Z" fill="#45DFFF"/>
  <path d="M0 8C0 9.02098 0.405583 10.0001 1.12752 10.7221C1.84947 11.444 2.82863 11.8496 3.84961 11.8496C4.87059 11.8496 5.84975 11.444 6.57169 10.7221C7.29364 10.0001 7.69922 9.02098 7.69922 8C7.69922 6.97902 7.29364 5.99986 6.57169 5.27792C5.84975 4.55597 4.87059 4.15039 3.84961 4.15039C2.82863 4.15039 1.84947 4.55597 1.12752 5.27792C0.405583 5.99986 0 6.97902 0 8Z" fill="#45DFFF"/>
  <path d="M7.69922 8C5.57316 8 3.84961 6.27645 3.84961 4.15039C5.97567 4.15039 7.69922 5.87394 7.69922 8ZM11.5488 4.15039C11.5488 6.27645 9.82528 8 7.69922 8C7.69922 5.87394 9.42277 4.15039 11.5488 4.15039ZM7.69922 8C7.69922 10.1261 5.97567 11.8496 3.84961 11.8496C3.84961 9.72355 5.57316 8 7.69922 8ZM11.5488 11.8496C9.42277 11.8496 7.69922 10.1261 7.69922 8C9.82528 8 11.5488 9.72355 11.5488 11.8496Z" fill="white" fill-opacity="0.6"/>
  <path d="M11.5488 11.8496C9.42277 11.8496 7.69922 10.1261 7.69922 8C9.82528 8 11.5488 9.72355 11.5488 11.8496ZM7.69922 8C7.69922 5.87394 9.42277 4.15039 11.5488 4.15039C11.5488 6.27645 9.82528 8 7.69922 8ZM7.69922 8C7.69922 10.1261 5.97567 11.8496 3.84961 11.8496C3.84961 9.72355 5.57316 8 7.69922 8ZM7.69922 8C5.57316 8 3.84961 6.27645 3.84961 4.15039C5.97567 4.15039 7.69922 5.87394 7.69922 8Z" fill="#00839E"/>
</svg>