<svg xmlns="http://www.w3.org/2000/svg" width="16" height="16" viewBox="0 0 16 16" fill="none">
  <path d="M7.6 1.6H8.4V14.4H7.6V1.6Z" fill="#6D4FFB"/>
  <path d="M1.6 7.6H14.4V8.4H1.6V7.6Z" fill="#6D4FFB"/>
  <path d="M3.1916 3.75748L3.75726 3.19179L12.8082 12.2427L12.2425 12.8083L3.1916 3.75748Z" fill="#AF9FFF"/>
  <path d="M3.1916 12.2425L12.2425 3.19165L12.8082 3.75734L3.75726 12.8082L3.1916 12.2425Z" fill="#AF9FFF"/>
  <path d="M4.8 8C4.8 8.84869 5.13714 9.66263 5.73726 10.2627C6.33737 10.8629 7.15131 11.2 8 11.2C8.84869 11.2 9.66263 10.8629 10.2627 10.2627C10.8629 9.66263 11.2 8.84869 11.2 8C11.2 7.15131 10.8629 6.33737 10.2627 5.73726C9.66263 5.13714 8.84869 4.8 8 4.8C7.15131 4.8 6.33737 5.13714 5.73726 5.73726C5.13714 6.33737 4.8 7.15131 4.8 8Z" fill="#6D4FFB"/>
  <path d="M6.4 1.6C6.4 2.02435 6.56857 2.43131 6.86863 2.73137C7.16869 3.03143 7.57565 3.2 8 3.2C8.42435 3.2 8.83131 3.03143 9.13137 2.73137C9.43143 2.43131 9.6 2.02435 9.6 1.6C9.6 1.17565 9.43143 0.768687 9.13137 0.468629C8.83131 0.168571 8.42435 0 8 0C7.57565 0 7.16869 0.168571 6.86863 0.468629C6.56857 0.768687 6.4 1.17565 6.4 1.6Z" fill="#6D4FFB"/>
  <path d="M10.9255 3.47451C10.9255 3.89885 11.0941 4.30582 11.3941 4.60588C11.6942 4.90593 12.1011 5.07451 12.5255 5.07451C12.9498 5.07451 13.3568 4.90593 13.6569 4.60588C13.9569 4.30582 14.1255 3.89885 14.1255 3.47451C14.1255 3.05016 13.9569 2.64319 13.6569 2.34313C13.3568 2.04308 12.9498 1.87451 12.5255 1.87451C12.1011 1.87451 11.6942 2.04308 11.3941 2.34313C11.0941 2.64319 10.9255 3.05016 10.9255 3.47451Z" fill="#AF9FFF"/>
  <path d="M12.8 8C12.8 8.42435 12.9686 8.83131 13.2686 9.13137C13.5687 9.43143 13.9757 9.6 14.4 9.6C14.8243 9.6 15.2313 9.43143 15.5314 9.13137C15.8314 8.83131 16 8.42435 16 8C16 7.57565 15.8314 7.16869 15.5314 6.86863C15.2313 6.56857 14.8243 6.4 14.4 6.4C13.9757 6.4 13.5687 6.56857 13.2686 6.86863C12.9686 7.16869 12.8 7.57565 12.8 8Z" fill="#6D4FFB"/>
  <path d="M10.9255 12.5255C10.9255 12.9498 11.0941 13.3568 11.3941 13.6569C11.6942 13.9569 12.1011 14.1255 12.5255 14.1255C12.9498 14.1255 13.3568 13.9569 13.6569 13.6569C13.9569 13.3568 14.1255 12.9498 14.1255 12.5255C14.1255 12.1011 13.9569 11.6942 13.6569 11.3941C13.3568 11.0941 12.9498 10.9255 12.5255 10.9255C12.1011 10.9255 11.6942 11.0941 11.3941 11.3941C11.0941 11.6942 10.9255 12.1011 10.9255 12.5255Z" fill="#AF9FFF"/>
  <path d="M6.4 14.4C6.4 14.8243 6.56857 15.2313 6.86863 15.5314C7.16869 15.8314 7.57565 16 8 16C8.42435 16 8.83131 15.8314 9.13137 15.5314C9.43143 15.2313 9.6 14.8243 9.6 14.4C9.6 13.9757 9.43143 13.5687 9.13137 13.2686C8.83131 12.9686 8.42435 12.8 8 12.8C7.57565 12.8 7.16869 12.9686 6.86863 13.2686C6.56857 13.5687 6.4 13.9757 6.4 14.4Z" fill="#6D4FFB"/>
  <path d="M1.87451 12.5255C1.87451 12.9498 2.04308 13.3568 2.34313 13.6569C2.64319 13.9569 3.05016 14.1255 3.47451 14.1255C3.89885 14.1255 4.30582 13.9569 4.60588 13.6569C4.90593 13.3568 5.07451 12.9498 5.07451 12.5255C5.07451 12.1011 4.90593 11.6942 4.60588 11.3941C4.30582 11.0941 3.89885 10.9255 3.47451 10.9255C3.05016 10.9255 2.64319 11.0941 2.34313 11.3941C2.04308 11.6942 1.87451 12.1011 1.87451 12.5255Z" fill="#AF9FFF"/>
  <path d="M0 8C0 8.42435 0.168571 8.83131 0.468629 9.13137C0.768687 9.43143 1.17565 9.6 1.6 9.6C2.02435 9.6 2.43131 9.43143 2.73137 9.13137C3.03143 8.83131 3.2 8.42435 3.2 8C3.2 7.57565 3.03143 7.16869 2.73137 6.86863C2.43131 6.56857 2.02435 6.4 1.6 6.4C1.17565 6.4 0.768687 6.56857 0.468629 6.86863C0.168571 7.16869 0 7.57565 0 8Z" fill="#6D4FFB"/>
  <path d="M1.87451 3.47451C1.87451 3.89885 2.04308 4.30582 2.34313 4.60588C2.64319 4.90593 3.05016 5.07451 3.47451 5.07451C3.89885 5.07451 4.30582 4.90593 4.60588 4.60588C4.90593 4.30582 5.07451 3.89885 5.07451 3.47451C5.07451 3.05016 4.90593 2.64319 4.60588 2.34313C4.30582 2.04308 3.89885 1.87451 3.47451 1.87451C3.05016 1.87451 2.64319 2.04308 2.34313 2.34313C2.04308 2.64319 1.87451 3.05016 1.87451 3.47451Z" fill="#AF9FFF"/>
</svg>